<svg xmlns="http://www.w3.org/2000/svg" xmlns:xlink="http://www.w3.org/1999/xlink" viewBox="0 0 243.221 250"><defs><style>.cls-1{mask:url(#mask);filter:url(#luminosity-noclip-5);}.cls-2,.cls-4,.cls-6,.cls-8{mix-blend-mode:multiply;}.cls-2{fill:url(#linear-gradient);}.cls-3{mask:url(#mask-2);filter:url(#luminosity-noclip-6);}.cls-4{fill:url(#linear-gradient-2);}.cls-5{mask:url(#mask-3);filter:url(#luminosity-noclip-7);}.cls-6{fill:url(#linear-gradient-3);}.cls-7{mask:url(#mask-4);filter:url(#luminosity-noclip-8);}.cls-8{fill:url(#linear-gradient-4);}.cls-9{isolation:isolate;}.cls-10{fill:url(#linear-gradient-5);}.cls-11{fill:#fff59d;}.cls-12{opacity:0.87;fill:url(#linear-gradient-6);}.cls-13{fill:url(#linear-gradient-7);}.cls-14{fill:url(#linear-gradient-8);}.cls-15{fill:url(#linear-gradient-9);}.cls-16{fill:#ff721a;}.cls-17{mask:url(#mask-5);}.cls-18,.cls-20,.cls-22,.cls-24{mix-blend-mode:overlay;}.cls-18{fill:url(#linear-gradient-10);}.cls-19{mask:url(#mask-6);}.cls-20{fill:url(#linear-gradient-11);}.cls-21{mask:url(#mask-7);}.cls-22{fill:url(#linear-gradient-12);}.cls-23{mask:url(#mask-8);}.cls-24{fill:url(#linear-gradient-13);}.cls-25{filter:url(#luminosity-noclip-4);}.cls-26{filter:url(#luminosity-noclip-3);}.cls-27{filter:url(#luminosity-noclip-2);}.cls-28{filter:url(#luminosity-noclip);}</style><filter id="luminosity-noclip" x="179.95" y="-8306.681" width="28.841" height="32766" filterUnits="userSpaceOnUse" color-interpolation-filters="sRGB"><feFlood flood-color="#fff" result="bg"/><feBlend in="SourceGraphic" in2="bg"/></filter><mask id="mask" x="179.95" y="-8306.681" width="28.841" height="32766" maskUnits="userSpaceOnUse"><g class="cls-28"/></mask><linearGradient id="linear-gradient" x1="168.538" y1="82.153" x2="210.262" y2="110.14" gradientUnits="userSpaceOnUse"><stop offset="0"/><stop offset="1" stop-color="#fff"/></linearGradient><filter id="luminosity-noclip-2" x="94.219" y="-8306.681" width="28.841" height="32766" filterUnits="userSpaceOnUse" color-interpolation-filters="sRGB"><feFlood flood-color="#fff" result="bg"/><feBlend in="SourceGraphic" in2="bg"/></filter><mask id="mask-2" x="94.219" y="-8306.681" width="28.841" height="32766" maskUnits="userSpaceOnUse"><g class="cls-27"/></mask><linearGradient id="linear-gradient-2" x1="6782.379" y1="2044.418" x2="6824.103" y2="2072.405" gradientTransform="translate(6916.851 2256.271) rotate(180)" xlink:href="#linear-gradient"/><filter id="luminosity-noclip-3" x="85.595" y="-8306.681" width="72.03" height="32766" filterUnits="userSpaceOnUse" color-interpolation-filters="sRGB"><feFlood flood-color="#fff" result="bg"/><feBlend in="SourceGraphic" in2="bg"/></filter><mask id="mask-3" x="85.595" y="-8306.681" width="72.03" height="32766" maskUnits="userSpaceOnUse"><g class="cls-26"/></mask><linearGradient id="linear-gradient-3" x1="121.61" y1="75.067" x2="121.61" y2="9.301" xlink:href="#linear-gradient"/><filter id="luminosity-noclip-4" x="22.898" y="-8306.681" width="197.426" height="32766" filterUnits="userSpaceOnUse" color-interpolation-filters="sRGB"><feFlood flood-color="#fff" result="bg"/><feBlend in="SourceGraphic" in2="bg"/></filter><mask id="mask-4" x="22.898" y="-8306.681" width="197.426" height="32766" maskUnits="userSpaceOnUse"><g class="cls-25"/></mask><linearGradient id="linear-gradient-4" x1="121.611" y1="214.997" x2="121.611" y2="18.326" xlink:href="#linear-gradient"/><linearGradient id="linear-gradient-5" x1="121.611" y1="23.839" x2="121.611" y2="240.99" gradientUnits="userSpaceOnUse"><stop offset="0.083" stop-color="#ebdd61"/><stop offset="1" stop-color="#e8852a"/></linearGradient><linearGradient id="linear-gradient-6" x1="82.881" y1="256.577" x2="130.883" y2="89.299" gradientUnits="userSpaceOnUse"><stop offset="0" stop-color="#e8852a"/><stop offset="0.917" stop-color="#ebdd61"/></linearGradient><linearGradient id="linear-gradient-7" x1="121.611" y1="14.16" x2="121.611" y2="227.638" gradientUnits="userSpaceOnUse"><stop offset="0" stop-color="#e8852a"/><stop offset="1" stop-color="#c74310"/></linearGradient><linearGradient id="linear-gradient-8" x1="121.611" y1="6.528" x2="121.611" y2="220.006" gradientUnits="userSpaceOnUse"><stop offset="0" stop-color="#ffb13b"/><stop offset="1" stop-color="#fff015"/></linearGradient><linearGradient id="linear-gradient-9" x1="121.611" y1="14.24" x2="121.611" y2="212.396" gradientUnits="userSpaceOnUse"><stop offset="0" stop-color="#ffd012"/><stop offset="1" stop-color="#ff4a01"/></linearGradient><filter id="luminosity-noclip-5" x="179.95" y="88.464" width="28.841" height="26.805" filterUnits="userSpaceOnUse" color-interpolation-filters="sRGB"><feFlood flood-color="#fff" result="bg"/><feBlend in="SourceGraphic" in2="bg"/></filter><mask id="mask-5" x="179.95" y="88.464" width="28.841" height="26.805" maskUnits="userSpaceOnUse"><g class="cls-1"><path class="cls-2" d="M179.95,88.464c25.43,0,28.841,15.112,28.841,22.1s-8.838,5.509-8.838,0S194.99,94.977,179.95,88.464Z"/></g></mask><linearGradient id="linear-gradient-10" x1="168.538" y1="82.153" x2="210.262" y2="110.14" gradientUnits="userSpaceOnUse"><stop offset="0" stop-color="#fff"/><stop offset="1" stop-color="#fff"/></linearGradient><filter id="luminosity-noclip-6" x="94.219" y="178.736" width="28.841" height="26.805" filterUnits="userSpaceOnUse" color-interpolation-filters="sRGB"><feFlood flood-color="#fff" result="bg"/><feBlend in="SourceGraphic" in2="bg"/></filter><mask id="mask-6" x="94.219" y="178.736" width="28.841" height="26.805" maskUnits="userSpaceOnUse"><g class="cls-3"><path class="cls-4" d="M123.06,205.541c-25.431,0-28.841-15.111-28.841-22.1s8.838-5.51,8.838,0S108.02,199.028,123.06,205.541Z"/></g></mask><linearGradient id="linear-gradient-11" x1="6782.379" y1="2044.418" x2="6824.103" y2="2072.405" gradientTransform="translate(6916.851 2256.271) rotate(180)" xlink:href="#linear-gradient-10"/><filter id="luminosity-noclip-7" x="85.595" y="15.265" width="72.03" height="33.002" filterUnits="userSpaceOnUse" color-interpolation-filters="sRGB"><feFlood flood-color="#fff" result="bg"/><feBlend in="SourceGraphic" in2="bg"/></filter><mask id="mask-7" x="85.595" y="15.265" width="72.03" height="33.002" maskUnits="userSpaceOnUse"><g class="cls-5"><path class="cls-6" d="M121.61,44.537a174.65,174.65,0,0,1,36.015,3.73V22.9a7.656,7.656,0,0,0-7.633-7.633H93.227A7.655,7.655,0,0,0,85.6,22.9V48.267A174.664,174.664,0,0,1,121.61,44.537Z"/></g></mask><linearGradient id="linear-gradient-12" x1="121.61" y1="75.067" x2="121.61" y2="9.301" xlink:href="#linear-gradient-10"/><filter id="luminosity-noclip-8" x="22.898" y="15.265" width="197.426" height="197.426" filterUnits="userSpaceOnUse" color-interpolation-filters="sRGB"><feFlood flood-color="#fff" result="bg"/><feBlend in="SourceGraphic" in2="bg"/></filter><mask id="mask-8" x="22.898" y="15.265" width="197.426" height="197.426" maskUnits="userSpaceOnUse"><g class="cls-7"><path class="cls-8" d="M212.691,77.963H165.257a7.655,7.655,0,0,1-7.632-7.632V22.9a7.656,7.656,0,0,0-7.633-7.633H93.227A7.655,7.655,0,0,0,85.6,22.9V70.331a7.655,7.655,0,0,1-7.633,7.632H30.53A7.655,7.655,0,0,0,22.9,85.6v56.765a7.655,7.655,0,0,0,7.632,7.633H77.962a7.655,7.655,0,0,1,7.633,7.632v47.432a7.655,7.655,0,0,0,7.632,7.633h56.765a7.656,7.656,0,0,0,7.633-7.633V157.626a7.655,7.655,0,0,1,7.632-7.632h47.434a7.655,7.655,0,0,0,7.632-7.633V85.6A7.655,7.655,0,0,0,212.691,77.963Zm0,64.4H165.257a15.284,15.284,0,0,0-15.265,15.265v47.432H93.227V157.626a15.283,15.283,0,0,0-15.265-15.265H30.53V85.6H77.962A15.282,15.282,0,0,0,93.227,70.331V22.9h56.765V70.331A15.283,15.283,0,0,0,165.257,85.6h47.434Z"/></g></mask><linearGradient id="linear-gradient-13" x1="121.611" y1="214.997" x2="121.611" y2="18.326" xlink:href="#linear-gradient-10"/></defs><g class="cls-9"><g id="Layer_1" data-name="Layer 1"><path class="cls-10" d="M149.992,250H93.227A30.564,30.564,0,0,1,62.7,219.47V187.3H30.53A30.564,30.564,0,0,1,0,156.773V100.008a30.564,30.564,0,0,1,30.53-30.53H62.7V37.309a30.564,30.564,0,0,1,30.53-30.53h56.765a30.564,30.564,0,0,1,30.53,30.53V69.478h32.169a30.564,30.564,0,0,1,30.53,30.53v56.765a30.564,30.564,0,0,1-30.53,30.53H180.522V219.47A30.564,30.564,0,0,1,149.992,250Z"/><path class="cls-11" d="M149.992,243.221H93.227a30.564,30.564,0,0,1-30.53-30.53V180.524H30.53A30.564,30.564,0,0,1,0,149.994V93.228A30.564,30.564,0,0,1,30.53,62.7H62.7V30.53A30.564,30.564,0,0,1,93.227,0h56.765a30.564,30.564,0,0,1,30.53,30.53V62.7h32.169a30.564,30.564,0,0,1,30.53,30.53v56.766a30.564,30.564,0,0,1-30.53,30.53H180.522v32.167A30.564,30.564,0,0,1,149.992,243.221Z"/><path class="cls-12" d="M149.992,243.221H93.227a30.564,30.564,0,0,1-30.53-30.53V180.524H30.53A30.564,30.564,0,0,1,0,149.994V93.228A30.564,30.564,0,0,1,30.53,62.7H62.7V30.53A30.564,30.564,0,0,1,93.227,0h56.765a30.564,30.564,0,0,1,30.53,30.53V62.7h32.169a30.564,30.564,0,0,1,30.53,30.53v56.766a30.564,30.564,0,0,1-30.53,30.53H180.522v32.167A30.564,30.564,0,0,1,149.992,243.221Z"/><path class="cls-13" d="M93.227,227.956a15.283,15.283,0,0,1-15.265-15.265V165.259H30.53a15.283,15.283,0,0,1-15.265-15.265V93.228A15.284,15.284,0,0,1,30.53,77.963H77.962V30.53A15.282,15.282,0,0,1,93.227,15.265h56.765A15.282,15.282,0,0,1,165.257,30.53V77.963h47.434a15.283,15.283,0,0,1,15.265,15.265v56.766a15.282,15.282,0,0,1-15.265,15.265H165.257v47.432a15.283,15.283,0,0,1-15.265,15.265Z"/><path class="cls-14" d="M93.227,220.323a15.282,15.282,0,0,1-15.265-15.265V157.626H30.53a15.283,15.283,0,0,1-15.265-15.265V85.6A15.283,15.283,0,0,1,30.53,70.331H77.962V22.9A15.282,15.282,0,0,1,93.227,7.633h56.765A15.282,15.282,0,0,1,165.257,22.9V70.331h47.434A15.282,15.282,0,0,1,227.956,85.6v56.765a15.282,15.282,0,0,1-15.265,15.265H165.257v47.432a15.282,15.282,0,0,1-15.265,15.265Z"/><path class="cls-15" d="M220.323,85.6a7.655,7.655,0,0,0-7.632-7.633H165.257a7.655,7.655,0,0,1-7.632-7.632V22.9a7.656,7.656,0,0,0-7.633-7.633H93.227A7.655,7.655,0,0,0,85.6,22.9V70.331a7.655,7.655,0,0,1-7.633,7.632H30.53A7.655,7.655,0,0,0,22.9,85.6v56.765a7.655,7.655,0,0,0,7.632,7.633H77.962a7.655,7.655,0,0,1,7.633,7.632v47.432a7.655,7.655,0,0,0,7.632,7.633h56.765a7.656,7.656,0,0,0,7.633-7.633V157.626a7.655,7.655,0,0,1,7.632-7.632h47.434a7.655,7.655,0,0,0,7.632-7.633Z"/><path class="cls-16" d="M121.61,109.971c-37.645,0-72.1,5.609-98.712,14.9v17.486a7.655,7.655,0,0,0,7.632,7.633H77.962a7.655,7.655,0,0,1,7.633,7.632v47.432a7.655,7.655,0,0,0,7.632,7.633h56.765a7.656,7.656,0,0,0,7.633-7.633V157.626a7.655,7.655,0,0,1,7.632-7.632h47.434a7.655,7.655,0,0,0,7.632-7.633V124.875C193.711,115.58,159.256,109.971,121.61,109.971Z"/><g class="cls-17"><path class="cls-18" d="M179.95,88.464c25.43,0,28.841,15.112,28.841,22.1s-8.838,5.509-8.838,0S194.99,94.977,179.95,88.464Z"/></g><g class="cls-19"><path class="cls-20" d="M123.06,205.541c-25.431,0-28.841-15.111-28.841-22.1s8.838-5.51,8.838,0S108.02,199.028,123.06,205.541Z"/></g><g class="cls-21"><path class="cls-22" d="M121.61,44.537a174.65,174.65,0,0,1,36.015,3.73V22.9a7.656,7.656,0,0,0-7.633-7.633H93.227A7.655,7.655,0,0,0,85.6,22.9V48.267A174.664,174.664,0,0,1,121.61,44.537Z"/></g><g class="cls-23"><path class="cls-24" d="M212.691,77.963H165.257a7.655,7.655,0,0,1-7.632-7.632V22.9a7.656,7.656,0,0,0-7.633-7.633H93.227A7.655,7.655,0,0,0,85.6,22.9V70.331a7.655,7.655,0,0,1-7.633,7.632H30.53A7.655,7.655,0,0,0,22.9,85.6v56.765a7.655,7.655,0,0,0,7.632,7.633H77.962a7.655,7.655,0,0,1,7.633,7.632v47.432a7.655,7.655,0,0,0,7.632,7.633h56.765a7.656,7.656,0,0,0,7.633-7.633V157.626a7.655,7.655,0,0,1,7.632-7.632h47.434a7.655,7.655,0,0,0,7.632-7.633V85.6A7.655,7.655,0,0,0,212.691,77.963Zm0,64.4H165.257a15.284,15.284,0,0,0-15.265,15.265v47.432H93.227V157.626a15.283,15.283,0,0,0-15.265-15.265H30.53V85.6H77.962A15.282,15.282,0,0,0,93.227,70.331V22.9h56.765V70.331A15.283,15.283,0,0,0,165.257,85.6h47.434Z"/></g></g></g></svg>