<svg xmlns="http://www.w3.org/2000/svg" xmlns:xlink="http://www.w3.org/1999/xlink" viewBox="0 0 200 200"><defs><style>.cls-1{fill:none;}.cls-2{isolation:isolate;}.cls-3{fill:url(#linear-gradient);}.cls-4{fill:url(#linear-gradient-2);}.cls-5{fill:url(#linear-gradient-3);}.cls-6{fill:url(#linear-gradient-4);}.cls-23,.cls-7,.cls-8{fill:#fff;}.cls-8{opacity:0.2;}.cls-9{mix-blend-mode:hard-light;}.cls-10{fill:#f7a504;}.cls-11,.cls-18{fill:#d07a00;}.cls-11{opacity:0.53;}.cls-12{fill:#955d00;}.cls-13{fill:#fdd900;}.cls-14,.cls-21{fill:#f7ff7c;}.cls-15{fill:#ffb700;}.cls-16{fill:#ffdb63;}.cls-17{clip-path:url(#clip-path);}.cls-19{opacity:0.5;}.cls-19,.cls-23{mix-blend-mode:lighten;}.cls-20{fill:#f99000;}.cls-21{opacity:0.51;}.cls-22{clip-path:url(#clip-path-2);}.cls-23{opacity:0.33;}.cls-24{fill:#fdb80a;}.cls-25{fill:#f09800;}.cls-26{fill:#e08e00;}</style><linearGradient id="linear-gradient" x1="100" x2="100" y2="200" gradientUnits="userSpaceOnUse"><stop offset="0" stop-color="#fffbbf"/><stop offset="1" stop-color="#d47800"/></linearGradient><linearGradient id="linear-gradient-2" x1="100" y1="4.396" x2="100" y2="195.604" gradientUnits="userSpaceOnUse"><stop offset="0" stop-color="#f8ff94"/><stop offset="0.325" stop-color="#e9c300"/><stop offset="0.691" stop-color="#ffd215"/><stop offset="1" stop-color="#d4a000"/></linearGradient><linearGradient id="linear-gradient-3" x1="100" y1="184.455" x2="100" y2="15.545" gradientTransform="translate(181.724 -15.418) rotate(80.301)" gradientUnits="userSpaceOnUse"><stop offset="0" stop-color="#f8ff94"/><stop offset="0.497" stop-color="#e9c300"/><stop offset="1" stop-color="#d48000"/></linearGradient><linearGradient id="linear-gradient-4" x1="100" y1="20.062" x2="100" y2="181.472" gradientUnits="userSpaceOnUse"><stop offset="0" stop-color="#f8ff94"/><stop offset="0.319" stop-color="#e9ce00"/><stop offset="0.702" stop-color="#dda400"/><stop offset="1" stop-color="#d48d00"/></linearGradient><clipPath id="clip-path"><path class="cls-1" d="M124.257,40.316C121.432,27.64,104.19,31.6,104.19,31.6c1.074-2.049,6.361-5.276,6.361-5.276C96.132,23.749,91.926,34.4,91.926,34.4c-2.134-3.787-9.41-5.693-15.047-4.856s-6.286,2.818-6.286,2.818a12.687,12.687,0,0,1,8.373,3.658c-14.086.8-16.572,13.8-16.572,13.8,3.638-5.175,11.16-4.257,11.16-4.257-4.794,2.283-3.349,9.592-3.349,9.592a11.814,11.814,0,0,1,12.854-3.555l3.655,1.261,1.953,1.705c3.3.349,17.329-2.572,17.329-2.572l-.4-2.665s-.077-.091-.219-.233c3.905-4.264,12.569-1.867,12.569-1.867,1.072-4.768-5.594-7.445-5.594-7.445C116.808,36.659,124.257,40.316,124.257,40.316Z"/></clipPath><clipPath id="clip-path-2"><path class="cls-1" d="M69.863,68.282S84.078,68.2,87.5,76.973c0,0,.251-2.536,1.625-2.43s7.906,7.2,20.293,7.2c0,0,7.314-3.3,8.729-8.494,0,0,2.185-.017,2.685,1.761a11.408,11.408,0,0,0,2.768-8.756c-.426-5.666-8.142-13.764-28.211-12.76C77.288,54.405,66.888,66.024,69.863,68.282Z"/></clipPath></defs><g class="cls-2"><g id="text"><circle class="cls-3" cx="100" cy="100" r="100"/><circle class="cls-4" cx="100" cy="100" r="95.604"/><circle class="cls-5" cx="100" cy="100" r="84.456" transform="translate(-15.418 181.724) rotate(-80.301)"/><circle class="cls-6" cx="100" cy="100.767" r="80.705"/><path class="cls-7" d="M20.553,117.4s13.487,63.558,78.893,63.558S179.262,117.4,179.262,117.4s-17.182,61.248-79.816,59.863S20.553,117.4,20.553,117.4Z"/><path class="cls-7" d="M107.125,184.833s55.831.139,75.295-58.654C158.251,182.428,107.125,184.833,107.125,184.833Z"/><path class="cls-8" d="M14.6,107.377c-.285-2.81-.824-7-.824-9.89,0-45.69,34.889-83.747,88.081-83.747,44.2,0,82.1,33.747,85.392,82.373a76.179,76.179,0,0,1-.732,11.264c5.222-1.1,4.545-3.343,5.794-4.758q.111-2.279.114-4.586c0-51.109-39.914-90.656-91.023-90.656S8.948,46.924,8.948,98.033q0,2.352.117,4.674C13.181,106.384,11.005,106.247,14.6,107.377Z"/><path class="cls-7" d="M12.4,61.673S33.967,10.441,79.083,6.7C37.637,13.462,12.4,61.673,12.4,61.673Z"/><g class="cls-9"><path class="cls-10" d="M69.866,95.3S58.286,81.841,50.787,83s3.536,11.657,3.916,15.8-2.359,13.308,2.9,18.442S73.447,117.94,69.866,95.3Z"/><path class="cls-11" d="M53.42,83.5S61.527,92.821,61.7,98s-3.843,16.389-1.836,19.341,7.678-5.388,7.678-5.388l1.079-14.63-2.958-8.4Z"/><path class="cls-12" d="M69.478,95.475a.167.167,0,0,0,.025.06c0,.007-.018-.017-.026-.023l-.065-.063-.133-.126-.267-.251-.541-.5-1.086-.988c-.733-.646-1.458-1.3-2.206-1.923C63.7,90.407,62.168,89.208,60.6,88.1a30.312,30.312,0,0,0-4.873-2.85,8.653,8.653,0,0,0-4.923-.894,2.834,2.834,0,0,0-.918.323.734.734,0,0,0-.312.392,1.683,1.683,0,0,0,0,.831,5.872,5.872,0,0,0,.349,1.156,36.086,36.086,0,0,0,2.71,4.963c.505.844,1.02,1.694,1.516,2.579A16.817,16.817,0,0,1,55.5,97.479a5.334,5.334,0,0,1,.269,1.757A15.064,15.064,0,0,1,55.7,100.8c-.084,1.014-.205,1.991-.312,2.967a33.761,33.761,0,0,0-.265,5.768,12.334,12.334,0,0,0,1.414,5.4,9.818,9.818,0,0,0,1.713,2.173A6.116,6.116,0,0,0,60.6,118.45a5.581,5.581,0,0,0,5.125-1.1,10.559,10.559,0,0,0,3.127-4.661,22.4,22.4,0,0,0,1.206-5.663,37.01,37.01,0,0,0,.066-5.844C70,99.242,69.727,97.255,69.478,95.475Zm.776-.36a59.085,59.085,0,0,1,.648,6.027,45.407,45.407,0,0,1-.088,5.958,23.134,23.134,0,0,1-1.226,5.862,11.618,11.618,0,0,1-3.307,5.076,6.833,6.833,0,0,1-2.79,1.423,6.425,6.425,0,0,1-3.162-.056,7.134,7.134,0,0,1-2.768-1.506,11.229,11.229,0,0,1-2.012-2.381,14.35,14.35,0,0,1-1.835-5.855,38.408,38.408,0,0,1-.11-6.03c.042-.987.1-1.972.112-2.925,0-.469.012-.953-.031-1.384a3.122,3.122,0,0,0-.236-1.136,14.81,14.81,0,0,0-1.3-2.394c-.513-.806-1.065-1.611-1.619-2.427a33.225,33.225,0,0,1-3.078-5.317,8.45,8.45,0,0,1-.507-1.664A4.293,4.293,0,0,1,47,84.3,3.4,3.4,0,0,1,48.447,82.4a5.408,5.408,0,0,1,1.846-.667,8.527,8.527,0,0,1,3.465.118,13.9,13.9,0,0,1,3.036,1.107,26.967,26.967,0,0,1,5.139,3.379,46.056,46.056,0,0,1,4.4,4.1c.681.73,1.357,1.462,2,2.227.32.382.64.763.949,1.155l.457.591.226.3.112.151.056.076.036.046A.907.907,0,0,1,70.254,95.115Z"/><path class="cls-12" d="M57.569,93.054a28.94,28.94,0,0,1,4.537,2.473,18.324,18.324,0,0,1,4.01,3.433,10.354,10.354,0,0,1,1.408,2.362,13.768,13.768,0,0,1,.756,2.592,17.613,17.613,0,0,1,.241,5.325,5.59,5.59,0,0,1-.975,2.717,2.1,2.1,0,0,1-1.588.829A2.9,2.9,0,0,1,64.4,112.3a5.3,5.3,0,0,1-1.915-2.133,9.635,9.635,0,0,1-.869-2.585,15.662,15.662,0,0,1-.1-5.279,11.694,11.694,0,0,1,.678-2.564,5.652,5.652,0,0,1,.64-1.207,2.373,2.373,0,0,1,.5-.532,1.088,1.088,0,0,1,.783-.237.222.222,0,0,1-.014.442l-.017,0c-.272.02-.5.35-.665.686a6.129,6.129,0,0,0-.393,1.123,15.785,15.785,0,0,0-.383,2.425,17.392,17.392,0,0,0,.2,4.892,5.657,5.657,0,0,0,2.23,3.852,1.625,1.625,0,0,0,.843.285.763.763,0,0,0,.585-.343,4.43,4.43,0,0,0,.669-2.058,14.4,14.4,0,0,0-1.146-7.1,12.116,12.116,0,0,0-1.211-2.009,28.774,28.774,0,0,0-7.331-6.75.087.087,0,0,1-.027-.12A.089.089,0,0,1,57.569,93.054Z"/><path class="cls-12" d="M61.468,96.467a6.739,6.739,0,0,0-1.018,1.446,10.1,10.1,0,0,0-.709,1.757,14.969,14.969,0,0,0-.4,1.908c-.1.655-.154,1.321-.231,2.007v0a.091.091,0,0,1-.177.015c-.094-.333-.18-.672-.248-1.015-.039-.344-.109-.691-.122-1.042a9.291,9.291,0,0,1,.125-2.121,8.105,8.105,0,0,1,.645-2.07,5.547,5.547,0,0,1,1.331-1.85.624.624,0,0,1,.862.9Z"/><path class="cls-13" d="M127.464,95.3s11.58-13.454,19.08-12.3-3.537,11.657-3.916,15.8,2.358,13.308-2.9,18.442S123.883,117.94,127.464,95.3Z"/><path class="cls-14" d="M138.43,86.381s6.7-1.879,5.442.647-4.2,8.868-3.991,10.337c0,0,5.382,19.79-4.488,21.788,0,0,5.741,0,7.48-7.338s-1.563-12.1,0-14.274,8.494-11.571,5.616-14.214S138.43,86.381,138.43,86.381Z"/><path class="cls-12" d="M139.841,93.207a28.79,28.79,0,0,0-7.331,6.75,12.11,12.11,0,0,0-1.21,2.009,13.474,13.474,0,0,0-.777,2.274,13.647,13.647,0,0,0-.37,4.827,4.442,4.442,0,0,0,.669,2.058.763.763,0,0,0,.585.343,1.625,1.625,0,0,0,.843-.285,5.657,5.657,0,0,0,2.23-3.852,17.354,17.354,0,0,0,.2-4.892,15.785,15.785,0,0,0-.383-2.425,6.2,6.2,0,0,0-.392-1.123c-.17-.336-.393-.666-.666-.686l-.017,0a.222.222,0,0,1-.014-.442,1.088,1.088,0,0,1,.783.237,2.35,2.35,0,0,1,.5.532,5.608,5.608,0,0,1,.64,1.207,11.639,11.639,0,0,1,.678,2.564,15.636,15.636,0,0,1-.1,5.279,9.635,9.635,0,0,1-.869,2.585,5.3,5.3,0,0,1-1.915,2.133,2.9,2.9,0,0,1-1.556.487,2.1,2.1,0,0,1-1.588-.829,5.611,5.611,0,0,1-.975-2.717,17.613,17.613,0,0,1,.241-5.325,13.768,13.768,0,0,1,.756-2.592,10.427,10.427,0,0,1,1.408-2.362,18.306,18.306,0,0,1,4.011-3.433,28.886,28.886,0,0,1,4.536-2.473.087.087,0,0,1,.114.045A.091.091,0,0,1,139.841,93.207Z"/><path class="cls-12" d="M136.666,95.506A5.547,5.547,0,0,1,138,97.356a8.105,8.105,0,0,1,.645,2.07,9.235,9.235,0,0,1,.125,2.121c-.013.351-.083.7-.122,1.042-.068.343-.154.682-.247,1.015a.091.091,0,0,1-.178-.015v0c-.077-.686-.126-1.352-.231-2.007a14.8,14.8,0,0,0-.4-1.908,10.177,10.177,0,0,0-.708-1.757,6.741,6.741,0,0,0-1.019-1.446l-.057-.058a.624.624,0,0,1,.861-.9Z"/><path class="cls-12" d="M127.076,95.115a.907.907,0,0,1,.085-.13l.036-.046.056-.076.112-.151.226-.3.458-.591c.308-.392.628-.773.948-1.155.639-.765,1.315-1.5,2-2.227a46.056,46.056,0,0,1,4.4-4.1,26.967,26.967,0,0,1,5.139-3.379,13.9,13.9,0,0,1,3.036-1.107,8.527,8.527,0,0,1,3.465-.118,5.408,5.408,0,0,1,1.846.667A3.4,3.4,0,0,1,150.33,84.3a4.317,4.317,0,0,1,.056,2.09,8.518,8.518,0,0,1-.508,1.664,33.225,33.225,0,0,1-3.078,5.317c-.554.816-1.105,1.621-1.619,2.427a14.81,14.81,0,0,0-1.3,2.394,3.122,3.122,0,0,0-.236,1.136c-.043.431-.028.915-.031,1.384.015.953.071,1.938.112,2.925a38.408,38.408,0,0,1-.11,6.03,14.35,14.35,0,0,1-1.835,5.855,11.2,11.2,0,0,1-2.012,2.381A7.134,7.134,0,0,1,137,119.405a6.425,6.425,0,0,1-3.162.056,6.833,6.833,0,0,1-2.79-1.423,11.618,11.618,0,0,1-3.307-5.076,23.089,23.089,0,0,1-1.225-5.862,45.062,45.062,0,0,1-.088-5.958A58.794,58.794,0,0,1,127.076,95.115Zm.776.36c-.249,1.78-.523,3.767-.648,5.711a37.01,37.01,0,0,0,.066,5.844,22.4,22.4,0,0,0,1.206,5.663,10.559,10.559,0,0,0,3.127,4.661,5.582,5.582,0,0,0,5.125,1.1,6.109,6.109,0,0,0,2.349-1.341,9.789,9.789,0,0,0,1.713-2.173,12.349,12.349,0,0,0,1.415-5.4,33.864,33.864,0,0,0-.266-5.768c-.106-.976-.228-1.953-.312-2.967a15.345,15.345,0,0,1-.061-1.567,5.31,5.31,0,0,1,.27-1.757,16.816,16.816,0,0,1,1.341-2.879c.5-.885,1.011-1.735,1.516-2.579a36.086,36.086,0,0,0,2.71-4.963,5.872,5.872,0,0,0,.349-1.156,1.683,1.683,0,0,0,0-.831.734.734,0,0,0-.312-.392,2.825,2.825,0,0,0-.918-.323,8.653,8.653,0,0,0-4.923.894,30.26,30.26,0,0,0-4.872,2.85c-1.567,1.108-3.093,2.307-4.578,3.565-.748.624-1.473,1.277-2.206,1.923l-1.085.988-.542.5-.267.251-.133.126-.065.063c-.008.006-.03.03-.026.023A.151.151,0,0,0,127.852,95.475Z"/><path class="cls-13" d="M138.643,127.263s4.935,2.963,4.348,5.612-3.671,1.386-5.329,2.822-11.822,16.2-11.822,16.2l-16.555-1.466c-2.175-14.058-18.366-16.262-18.366-16.262-10.467-3.692-7.038-18.578-6.472-26.85s-.516-8.293-1.406-22.148,25.475-26.446,25.475-26.446c.728.152,1.406.324,2.023.506,9.253,2.741,21.308,11.448,22.147,21.581,0,0,7.888,5.6,1.982,13.41,0,0-1.163,6.119-.424,7.494s4.642,4.541,5.279,8.545S143.5,122.823,138.643,127.263Z"/><path class="cls-15" d="M109.285,150.432,78.7,147.721l-13.42-13.875-1.416-16.211s1.517-4.43,1.77-16.707c.182-8.465-6.847-19.1,2.275-30.1,10.811-13.036,30.5-14.229,40.6-12.106,0,0-26.365,12.591-25.475,26.446s1.972,13.875,1.406,22.148-4,23.158,6.472,26.85C90.919,134.17,107.11,136.374,109.285,150.432Z"/><path class="cls-14" d="M132.358,84.258s3.3,1.529,3.268,7.561c0,0,2.6-2.8-.489-8.464S132.358,84.258,132.358,84.258Z"/><path class="cls-14" d="M130.488,104.4s7.512,5.156,7.456,11.44l2.45-4.258s-2.023-6.313-6.836-10.029Z"/><path class="cls-14" d="M131.886,85.787s-4.008-11.228-12.672-15.177,3.186-5.57,3.186-5.57S136.682,77.285,131.886,85.787Z"/><path class="cls-12" d="M133.288,80.8a20.493,20.493,0,0,1-.363,3.068,10.164,10.164,0,0,1-.415,1.5,3.411,3.411,0,0,1-.848,1.39.245.245,0,0,1-.349-.343l.01-.012a2.9,2.9,0,0,0,.551-1.234,9.43,9.43,0,0,0,.217-1.426,19.616,19.616,0,0,0,0-2.919v-.013a.6.6,0,0,1,1.195-.086C133.288,80.747,133.289,80.773,133.288,80.8Z"/><path class="cls-14" d="M123.135,121.985s16.116,6.794,16.1,9.571-3.271,2.644-3.271,2.644l4.22.674s3.093-.278,2.856-2.5S136.972,123.822,123.135,121.985Z"/><path class="cls-12" d="M63.282,117.565l.143-.56.106-.469c.067-.316.127-.634.185-.954.112-.641.208-1.288.294-1.936.168-1.3.3-2.605.4-3.914.2-2.62.3-5.253.327-7.888a29.588,29.588,0,0,0-.956-7.652A71.336,71.336,0,0,1,62.3,86.27a22.554,22.554,0,0,1,.522-8.286,20.421,20.421,0,0,1,3.792-7.446,34.016,34.016,0,0,1,13.006-9.874,48.5,48.5,0,0,1,15.776-3.9,51.1,51.1,0,0,1,8.141-.01,33.611,33.611,0,0,1,8.085,1.524,39.615,39.615,0,0,1,13.956,8.344,27.36,27.36,0,0,1,5.2,6.322,17.106,17.106,0,0,1,2.5,7.819h0l-.246-.431a12.356,12.356,0,0,1,2.753,2.93,9.759,9.759,0,0,1,1.547,3.735,8.609,8.609,0,0,1-.305,4.056,11.259,11.259,0,0,1-1.694,3.463l-.2.216a37.431,37.431,0,0,0-.486,3.952,12.842,12.842,0,0,0-.028,2.115,3.182,3.182,0,0,0,.075.457.982.982,0,0,0,.161.333,8.679,8.679,0,0,0,.636.813,34.4,34.4,0,0,1,2.823,3.526,11.014,11.014,0,0,1,1.795,4.3c.528,2.828,1.441,5.746,1.654,8.787a14.148,14.148,0,0,1-.326,4.612,8.253,8.253,0,0,1-2.4,4.067l-.094-.941a15.222,15.222,0,0,1,3.4,2.826,5.484,5.484,0,0,1,1.173,2.051,2.877,2.877,0,0,1,.059,1.319,2.953,2.953,0,0,1-.519,1.206,2.616,2.616,0,0,1-1.061.825,5.135,5.135,0,0,1-1.149.334,15.265,15.265,0,0,0-2,.392,2.334,2.334,0,0,0-.75.393,6.66,6.66,0,0,0-.646.7c-.443.518-.872,1.083-1.3,1.639-3.384,4.5-6.609,9.159-9.828,13.8a.592.592,0,0,1-.538.253L78.654,148.31a.59.59,0,0,1-.372-.178L64.856,134.259a.585.585,0,0,1-.163-.359Zm1.171.142L65.868,133.8l-.164-.359,13.425,13.873-.371-.177,47.138,4.177-.538.253c3.229-4.656,6.446-9.3,9.862-13.847.435-.567.861-1.13,1.336-1.688a7.293,7.293,0,0,1,.8-.849,3.5,3.5,0,0,1,1.114-.593,15.635,15.635,0,0,1,2.158-.434,2.258,2.258,0,0,0,1.484-.708,1.791,1.791,0,0,0,.306-.729,1.7,1.7,0,0,0-.042-.78,4.36,4.36,0,0,0-.932-1.593,14.087,14.087,0,0,0-3.106-2.58l-.012-.008a.589.589,0,0,1-.183-.813.655.655,0,0,1,.1-.12,7.059,7.059,0,0,0,2.051-3.495,13.032,13.032,0,0,0,.291-4.225c-.2-2.9-1.077-5.69-1.642-8.686a9.869,9.869,0,0,0-1.614-3.841,33.487,33.487,0,0,0-2.738-3.413,9.691,9.691,0,0,1-.731-.94,2.165,2.165,0,0,1-.308-.668,4.254,4.254,0,0,1-.109-.639,13.759,13.759,0,0,1,.027-2.329c.125-1.512.344-2.985.612-4.469a.566.566,0,0,1,.1-.24l-.023-.12a10.475,10.475,0,0,0,1.734-3.066,7.422,7.422,0,0,0,.267-3.5,8.6,8.6,0,0,0-1.364-3.278,11.289,11.289,0,0,0-2.458-2.626.634.634,0,0,1-.241-.4l0-.029h0a16.624,16.624,0,0,0-2.746-7.032,29.056,29.056,0,0,0-5.128-5.7,39.507,39.507,0,0,0-13.366-7.5,33.752,33.752,0,0,0-7.518-1.318,50.906,50.906,0,0,0-7.741.043,46,46,0,0,0-14.968,3.594A31.566,31.566,0,0,0,68.5,72.026a18.766,18.766,0,0,0-3.488,6.562,20.369,20.369,0,0,0-.605,7.481A69.66,69.66,0,0,0,65.7,93.791c.257,1.307.516,2.63.671,3.99.078.68.137,1.367.153,2.062s-.009,1.4-.041,2.049c-.114,2.662-.3,5.325-.587,7.981-.151,1.328-.316,2.655-.552,3.977-.116.661-.243,1.321-.388,1.98-.074.329-.151.658-.236.988l-.134.5-.074.249-.041.128-.02.064A.222.222,0,0,0,64.453,117.707Z"/><path class="cls-16" d="M83.023,112.517a24.014,24.014,0,0,1-.474-3.051c-8.831,8.894-.877,21.232-.877,21.232a29.507,29.507,0,0,1,2.964-2.69C80.968,122.246,82.771,113.625,83.023,112.517Z"/><path class="cls-14" d="M83.023,112.517c-.252,1.108-2.055,9.729,1.613,15.491a33.064,33.064,0,0,1,5.867-3.761C85.725,121.754,83.787,116.066,83.023,112.517Z"/><path class="cls-16" d="M92.57,114.661c-.362-.365-.58-.589-.58-.589-2.261,2.652-3.007,8-3.007,8v1.211l1.52.965,5.624-1.909A10.917,10.917,0,0,1,92.57,114.661Z"/><path class="cls-14" d="M92.57,114.661a10.917,10.917,0,0,0,3.557,7.677l3.732-1.267C98.174,120.229,94.085,116.189,92.57,114.661Z"/><path class="cls-14" d="M141,109.229a19.323,19.323,0,0,1-5.908,16.223,29.329,29.329,0,0,1,4.535,3.018A16.955,16.955,0,0,0,141,109.229Z"/><path class="cls-16" d="M141,109.229c-.123-.217-.242-.433-.376-.651,0,0-3.209,9.946-11.661,14.128a41.768,41.768,0,0,1,6.129,2.746A19.323,19.323,0,0,0,141,109.229Z"/><path class="cls-12" d="M92.078,115.149c-.2-.194-.407-.379-.6-.58l1.053-.035a11.47,11.47,0,0,0-2.087,3.5,25.277,25.277,0,0,0-1.253,4.069l0-.029-.07,1.2v0a.142.142,0,0,1-.145.14.146.146,0,0,1-.082-.027,15.406,15.406,0,0,1-4.861-6.191,25.073,25.073,0,0,1-1.379-3.738,26.16,26.16,0,0,1-.818-3.934v-.008l1.217.453-.918,1.015-.463.508c-.149.173-.257.375-.389.561l-.762,1.141-.585,1.24a13.844,13.844,0,0,0-1.118,5.387,20.182,20.182,0,0,0,.791,5.559,23.923,23.923,0,0,0,2.17,5.241l0,0-.208-.02a24.488,24.488,0,0,1,3.95-3.409,39.495,39.495,0,0,1,4.589-2.476c1.569-.743,3.162-1.431,4.768-2.087l1.214-.483,1.23-.422,2.459-.844.009,0-.026.368a13.128,13.128,0,0,1-2.087-1.349c-.655-.494-1.291-1.008-1.919-1.529C94.508,117.326,93.286,116.247,92.078,115.149Zm.984-.976c1.079,1.2,2.177,2.389,3.305,3.542.566.576,1.139,1.143,1.728,1.69a12.882,12.882,0,0,0,1.853,1.488l.016.009a.2.2,0,0,1,.065.274.2.2,0,0,1-.106.084l-.008,0-2.461.827c-.827.267-1.635.548-2.434.883-1.6.644-3.2,1.32-4.764,2.049a39.211,39.211,0,0,0-4.566,2.426,24.213,24.213,0,0,0-3.921,3.343.135.135,0,0,1-.19,0l-.019-.023,0-.006a24.307,24.307,0,0,1-2.477-5.219,20.875,20.875,0,0,1-1.1-5.714,14.831,14.831,0,0,1,.909-5.821l.573-1.384.765-1.287c.134-.211.246-.439.4-.636l.472-.58.952-1.16a.685.685,0,0,1,1.213.385l0,.068v0a25.115,25.115,0,0,0,.5,3.763,24.151,24.151,0,0,0,1.059,3.679,14.84,14.84,0,0,0,4.245,6.3l-.226.112v0l-.07-1.2v-.011l0-.018a25.9,25.9,0,0,1,.8-4.31,12.575,12.575,0,0,1,1.877-4.123.669.669,0,0,1,.935-.142.7.7,0,0,1,.071.06l.048.048C92.7,113.767,92.875,113.974,93.062,114.173Z"/><path class="cls-12" d="M140.388,109.574l-.377-.623,1.286-.155a28.572,28.572,0,0,1-2.08,4.34,30.213,30.213,0,0,1-2.723,3.922,23.6,23.6,0,0,1-3.373,3.375,20.663,20.663,0,0,1-4.019,2.561h0l-.041-.595a42.634,42.634,0,0,1,5.6,2.5,30.376,30.376,0,0,1,5.116,3.379h0l-.34.027a16.886,16.886,0,0,0,2.4-4.4,15.992,15.992,0,0,0,1.013-4.882,14.856,14.856,0,0,0-.534-4.91,16.1,16.1,0,0,0-.811-2.336C141.193,111.021,140.755,110.31,140.388,109.574Zm1.214-.69c.364.808.791,1.584,1.095,2.415a17.358,17.358,0,0,1,.759,2.54,15.9,15.9,0,0,1,.338,5.261,16.866,16.866,0,0,1-1.286,5.075,17.479,17.479,0,0,1-2.7,4.457.239.239,0,0,1-.335.031l0,0h0A29.943,29.943,0,0,0,134.4,125.4a42.014,42.014,0,0,0-5.539-2.39.324.324,0,0,1-.058-.585l.017-.01h0a19.969,19.969,0,0,0,3.762-2.625,22.571,22.571,0,0,0,3.1-3.376,28.932,28.932,0,0,0,2.46-3.877,27.506,27.506,0,0,0,1.8-4.18h0a.6.6,0,0,1,1.051-.581l.235.426Z"/><path class="cls-12" d="M80.794,131.837a22.565,22.565,0,0,1,6.935-6.686,32.961,32.961,0,0,1,8.906-3.88,43.507,43.507,0,0,1,9.6-1.5l2.428-.04a22.038,22.038,0,0,1,2.425.033c1.61.112,3.235.137,4.832.323a85.662,85.662,0,0,1,9.565,1.44,49.489,49.489,0,0,1,9.287,2.878,27.893,27.893,0,0,1,4.34,2.316,13.138,13.138,0,0,1,3.694,3.426,4.466,4.466,0,0,1,.835,2.611,2.092,2.092,0,0,1-.653,1.451,3.5,3.5,0,0,1-.336.236l-.291.15a4.567,4.567,0,0,1-.592.263,6.07,6.07,0,0,1-2.521.355,1.394,1.394,0,0,0-.892.225,2.864,2.864,0,0,0-.642.794l-.015.023a.427.427,0,1,1-.726-.451l0,0a3.656,3.656,0,0,1,.877-1.045,2.369,2.369,0,0,1,1.372-.422,5.139,5.139,0,0,0,2.188-.368,3.833,3.833,0,0,0,.5-.242c.078-.045.169-.089.238-.133l.143-.124a.936.936,0,0,0,.214-.718,4.022,4.022,0,0,0-.844-1.811,12.955,12.955,0,0,0-3.333-3.033,26.538,26.538,0,0,0-4.118-2.2,64.787,64.787,0,0,0-18.417-4.337l-1.186-.126-1.187-.063-2.373-.127a21.579,21.579,0,0,0-2.372-.023l-2.372.047c-.791.019-1.573.138-2.36.2-.783.094-1.58.1-2.351.267l-2.331.4c-.782.111-1.533.357-2.3.528A35.427,35.427,0,0,0,88.18,125.9a28.358,28.358,0,0,0-3.931,2.64,20.288,20.288,0,0,0-3.388,3.336l0,0a.041.041,0,0,1-.056.007A.04.04,0,0,1,80.794,131.837Z"/><path class="cls-10" d="M104.377,110.328a9.883,9.883,0,0,0,9.007,5.751c4.346,0,8.614-3.355,7.178-8.314C120.845,114.334,110.211,115.6,104.377,110.328Z"/><path class="cls-12" d="M105.321,111.521a6.151,6.151,0,0,0,2.372,2.5,9.625,9.625,0,0,0,3.284,1.192,13.492,13.492,0,0,0,3.526.181,7.177,7.177,0,0,0,3.221-1,6.057,6.057,0,0,0,2.315-2.366,5.321,5.321,0,0,0,.585-3.218,5.984,5.984,0,0,0-.473-1.628,7.57,7.57,0,0,0-.986-1.445,9.022,9.022,0,0,0-1.294-1.258c-.475-.382-1.017-.678-1.526-1.049a9.541,9.541,0,0,1,3.293,1.844,7.275,7.275,0,0,1,1.288,1.48,6.768,6.768,0,0,1,.743,1.865,6.124,6.124,0,0,1-.506,3.986,6.859,6.859,0,0,1-2.755,2.928,4.358,4.358,0,0,1-.895.467c-.314.121-.619.272-.941.364a9.135,9.135,0,0,1-1.973.325,12.994,12.994,0,0,1-3.864-.329,9.526,9.526,0,0,1-3.56-1.58,7.1,7.1,0,0,1-1.408-1.368,5.189,5.189,0,0,1-.929-1.74Z"/><g class="cls-17"><rect class="cls-18" x="44.758" y="14.346" width="95.692" height="52.408"/><path class="cls-15" d="M73.554,45.557s11.009-4.317,16.324,3.664-6.3,5.928-6.3,5.928L71.6,59.589l-4.893-2.214.932-4.767,2.271-5.834Z"/><path class="cls-14" d="M112.356,39.778s-8.889-2.091-12.01,8.2,7.07-.046,16.823,1.71,7.363-2.536,7.363-2.536S116.614,38.693,112.356,39.778Z"/><path class="cls-14" d="M78.966,36.017S88.2,43.276,89.892,51.945s5.141-1.691,5.141-1.691A25.44,25.44,0,0,0,91.926,34.4c-4.566-7.931-8.48-11-8.48-11L67.332,26.313l-1.995,4.6,1.611,4.143Z"/><path class="cls-15" d="M91.926,34.4s-1.569,7.743,0,14.429,7.221.344,7.221.344A27.691,27.691,0,0,1,104.19,31.6c3.881-5.665,15.636-3.933,15.636-3.933l-10.539-5.721L93.7,26.562Z"/><g class="cls-19"><path class="cls-7" d="M87.641,53.765a21.716,21.716,0,0,1-3.961-2.022,6.6,6.6,0,0,0-4.251-1.011A14.33,14.33,0,0,1,87.31,51a6.405,6.405,0,0,0-2.966-4c1.943.731,4.032,1.581,5.089,3.368a18.006,18.006,0,0,0-.624-8.327,15.39,15.39,0,0,1,3.577,4.248,11.164,11.164,0,0,1,1.138-4.572,5.867,5.867,0,0,1,3.519-2.985,11.355,11.355,0,0,0,.055,7.249c1.866-.957,3.849-2.03,4.8-3.9l-.751,3.793A5.628,5.628,0,0,1,104,44.3l-.136,2.384a11.255,11.255,0,0,1,6.943-.739,3.161,3.161,0,0,0-2.332,1.145c-1.06,1.3-1,3.391-2.352,4.391a4.731,4.731,0,0,1-2.362.69,57.048,57.048,0,0,1-7.853.49,23.854,23.854,0,0,0-3.413-.006,5.153,5.153,0,0,0-3.082,1.32"/></g></g><path class="cls-12" d="M123.869,39.823a1.165,1.165,0,0,0-.521-.315.186.186,0,0,1-.109-.093l-.15-.307c-.106-.215-.2-.434-.3-.649l-.342-.619a10.88,10.88,0,0,0-6.414-5.148,21.683,21.683,0,0,0-5.781-.976,33.788,33.788,0,0,0-5.971.3l-.083.013a.4.4,0,0,1-.391-.628h0a7.2,7.2,0,0,1,1.39-1.734c.514-.5,1.05-.964,1.6-1.4,1.1-.884,2.236-1.7,3.422-2.475l.218,1.157h0a38.849,38.849,0,0,0-5.3-.173,16.457,16.457,0,0,0-5.125.979,14.835,14.835,0,0,0-4.5,2.656,14.3,14.3,0,0,0-3.3,4.109l-.017.033a.313.313,0,0,1-.42.135.308.308,0,0,1-.131-.129h0a9.01,9.01,0,0,0-4.527-3.212,20.079,20.079,0,0,0-5.588-1.134,19.662,19.662,0,0,0-5.634.45,15.228,15.228,0,0,0-2.634.818,7.808,7.808,0,0,0-1.119.61,3.237,3.237,0,0,0-.437.356,1.912,1.912,0,0,0-.161.176l-.051.073c-.007,0-.034.073,0-.03L70.6,31.4h0a11.99,11.99,0,0,1,4.789,1.409,14.1,14.1,0,0,1,2.044,1.329A13.181,13.181,0,0,1,79.2,35.8l.015.018a.314.314,0,0,1-.231.522h0a19.88,19.88,0,0,0-5.533,1.239,16.049,16.049,0,0,0-4.77,2.917A17.115,17.115,0,0,0,65.2,44.834a18.158,18.158,0,0,0-1.969,5.14l-1.534-.65v0A9.835,9.835,0,0,1,64.2,47.058a11.3,11.3,0,0,1,3.017-1.321,14.806,14.806,0,0,1,3.177-.514,15.909,15.909,0,0,1,3.182.128h.007a.206.206,0,0,1,.057.392h0a5.31,5.31,0,0,0-1.9,1.731,6.838,6.838,0,0,0-.947,2.381,11.117,11.117,0,0,0-.206,2.591,13.8,13.8,0,0,0,.315,2.563l-1.231-.343h0a14.272,14.272,0,0,1,3.732-2.874,11.956,11.956,0,0,1,4.52-1.336,12.484,12.484,0,0,1,4.662.457l4.264,1.538.012,0a.406.406,0,0,1,.13.078h0l1.952,1.7-.236-.1a25.208,25.208,0,0,0,4.27-.291c1.442-.184,2.882-.418,4.321-.657q4.314-.732,8.606-1.618l-.336.482-.4-2.665.1.214-.2-.209-.02-.021a.41.41,0,0,1,.008-.569h0a7.643,7.643,0,0,1,2.877-2.008,12.173,12.173,0,0,1,3.376-.81,19.5,19.5,0,0,1,3.433-.042,22.666,22.666,0,0,1,3.414.5l-1.015.608h0a4.333,4.333,0,0,0-.175-2.022,6.026,6.026,0,0,0-1.107-1.841,12.234,12.234,0,0,0-1.7-1.6,22.813,22.813,0,0,0-1.977-1.4l-.135-.087a.378.378,0,0,1,.049-.661h0a7.477,7.477,0,0,1,3.032-1.246,11.722,11.722,0,0,1,3.231-.1,18.354,18.354,0,0,1,3.14.595q.77.213,1.521.479l.748.28.371.152.186.08.094.041.048.022.024.011A.613.613,0,0,0,123.869,39.823Zm.776.985a.687.687,0,0,1-.681.062l-.02-.01-.039-.02-.083-.039-.168-.079-.342-.153-.7-.286q-.7-.276-1.425-.5a17.337,17.337,0,0,0-2.933-.655,10.721,10.721,0,0,0-2.956-.005,6.567,6.567,0,0,0-2.7,1.005h0l-.086-.747a10.512,10.512,0,0,1,2.451,1.009,9.5,9.5,0,0,1,2.159,1.637,6.369,6.369,0,0,1,1.536,2.418,5.487,5.487,0,0,1,.272,1.479,5.343,5.343,0,0,1-.187,1.477h0a.807.807,0,0,1-.956.623l-.059-.014a21.4,21.4,0,0,0-3.121-.639,18.3,18.3,0,0,0-3.2-.149,11.005,11.005,0,0,0-3.1.551,6.674,6.674,0,0,0-2.62,1.6h0l-.012-.59.241.258a.362.362,0,0,1,.095.2l0,.019.4,2.665a.429.429,0,0,1-.336.482q-4.308.882-8.638,1.624c-1.446.239-2.893.475-4.353.662a25.588,25.588,0,0,1-4.47.293.366.366,0,0,1-.221-.09l-.015-.013-1.953-1.705h0l.142.082-4.26-1.385a11.426,11.426,0,0,0-4.266-.282,10.741,10.741,0,0,0-4.027,1.331,12.921,12.921,0,0,0-3.288,2.707h0l-.074.069a.69.69,0,0,1-1.158-.413,14.908,14.908,0,0,1-.087-2.863,12.178,12.178,0,0,1,.489-2.8,7.635,7.635,0,0,1,1.3-2.545,5.839,5.839,0,0,1,2.258-1.709h0l.064.394a15.387,15.387,0,0,0-3.053.193,13.886,13.886,0,0,0-2.92.786A10.061,10.061,0,0,0,65,48.189,8.282,8.282,0,0,0,63.092,50.3h0l-.063.08a.84.84,0,0,1-1.471-.73A19.551,19.551,0,0,1,63.965,44.1a18.427,18.427,0,0,1,3.958-4.5,17.072,17.072,0,0,1,5.217-2.873A20.636,20.636,0,0,1,78.947,35.7h0l-.215.539a12.543,12.543,0,0,0-1.844-1.3,12.99,12.99,0,0,0-2.031-.957,10.382,10.382,0,0,0-2.126-.557,9.958,9.958,0,0,0-2.142-.1h0l-.074,0a.932.932,0,0,1-.891-.971.95.95,0,0,1,.057-.283,1.939,1.939,0,0,1,.17-.36c.052-.088.1-.156.155-.234a4.033,4.033,0,0,1,.326-.38,5.319,5.319,0,0,1,.7-.593,7.887,7.887,0,0,1,1.475-.8,13.84,13.84,0,0,1,3.032-.857,19.7,19.7,0,0,1,6.143-.156A19.952,19.952,0,0,1,87.56,30.3a9.562,9.562,0,0,1,4.64,3.946h0l-.568.039A13.565,13.565,0,0,1,94.768,29.6a14.827,14.827,0,0,1,4.725-3.161,17.542,17.542,0,0,1,11.168-.736h0l.01,0a.627.627,0,0,1,.507.727.635.635,0,0,1-.3.429c-1.17.688-2.333,1.44-3.435,2.239-.553.4-1.086.822-1.591,1.265a6.413,6.413,0,0,0-1.285,1.433h0l-.475-.616a23.79,23.79,0,0,1,3.062-.609,24.84,24.84,0,0,1,3.112-.254,20.35,20.35,0,0,1,6.277.735,12.674,12.674,0,0,1,5.629,3.246,9.54,9.54,0,0,1,1.851,2.747l.317.76.231.784.108.412a3.965,3.965,0,0,1,.088.645A4.484,4.484,0,0,1,124.645,40.808Z"/><path class="cls-12" d="M88.485,49.185a5.151,5.151,0,0,0-.844-1.67,6.705,6.705,0,0,0-1.412-1.4,7.983,7.983,0,0,0-1.81-.957c-.319-.139-.662-.209-1-.317-.34-.081-.687-.141-1.034-.212l-.007,0a.069.069,0,0,1,.018-.137c.356.023.716.034,1.074.067.354.062.719.087,1.07.183a8.562,8.562,0,0,1,2.072.752,7.6,7.6,0,0,1,1.807,1.353A6.213,6.213,0,0,1,89.756,48.8a.667.667,0,0,1-1.229.519.61.61,0,0,1-.031-.091Z"/><path class="cls-12" d="M99.247,47.7a15.123,15.123,0,0,1,1.065-2.185,15.552,15.552,0,0,1,1.347-1.955,11.443,11.443,0,0,1,1.689-1.656A7.705,7.705,0,0,1,105.4,40.8a.119.119,0,0,1,.1.212l-.005,0a7.167,7.167,0,0,0-1.632,1.43,10.391,10.391,0,0,0-1.155,1.8,14.063,14.063,0,0,0-.788,1.987,13.243,13.243,0,0,0-.473,2.025,1.142,1.142,0,1,1-2.264-.3A1.186,1.186,0,0,1,99.247,47.7Z"/><path class="cls-12" d="M104.961,31.971a6.132,6.132,0,0,0-1.08.816,7.839,7.839,0,0,0-.964,1.059,8.324,8.324,0,0,0-1.341,2.614.085.085,0,0,1-.106.058.086.086,0,0,1-.061-.089,9.013,9.013,0,0,1,1.582-4.406,7.4,7.4,0,0,1,1.093-1.278.759.759,0,1,1,1.026,1.119.752.752,0,0,1-.139.1Z"/><path class="cls-12" d="M92.233,34.294a19.142,19.142,0,0,0-.65,2.659,11.25,11.25,0,0,0-.157,2.735.128.128,0,0,1-.114.14.131.131,0,0,1-.138-.105,11.622,11.622,0,0,1-.112-2.831,19.72,19.72,0,0,1,.409-2.817.4.4,0,1,1,.776.172c0,.012-.006.024-.01.036Z"/><path class="cls-20" d="M85.515,55.543l-.622-2.487s3.041-5.078,11.675-5.078S108.1,52.849,108.1,52.849v2.694S88.727,56.372,85.515,55.543Z"/><path class="cls-21" d="M95.716,48.369s3.192,1.508,3.032,4.372l9.338,1.237.018-1.129-6.194-4.48-5.342-.391Z"/><path class="cls-12" d="M85.211,55.844c-.259-.88-.509-1.784-.733-2.684l-.044-.177.092-.147h0A10.945,10.945,0,0,1,89.7,48.3a17.984,17.984,0,0,1,13.508-.121,10.538,10.538,0,0,1,5.259,4.444l0,0,.06.1v3.228l-.41.016q-5.657.228-11.313.332c-1.886.03-3.774.049-5.665.026q-1.418-.011-2.84-.074c-.476-.025-.949-.04-1.43-.092-.251-.028-.452-.033-.745-.078A6.331,6.331,0,0,1,85.211,55.844Zm.607-.6a1.788,1.788,0,0,1,.475,0c.172.026.443.044.66.066.456.05.925.065,1.391.09q1.4.063,2.81.072c1.878.023,3.76,0,5.641-.026,3.764-.062,7.53-.179,11.291-.331l-.41.428V52.849l.061.218,0,0a12.264,12.264,0,0,0-5.175-3.16,19.425,19.425,0,0,0-6.1-.866A19.059,19.059,0,0,0,90.388,50a12.834,12.834,0,0,0-5.128,3.274h0l.048-.324C85.5,53.71,85.663,54.464,85.818,55.241Z"/><g class="cls-22"><rect class="cls-18" x="61.055" y="50.919" width="70.648" height="34.373"/><path class="cls-15" d="M81.637,56.129s-1.095,11.609,7.488,18.414,17.016,13.17,17.016,13.17,11.283-6.163,12.006-14.459-3.572-19.275-10.255-23.412S81.637,56.129,81.637,56.129Z"/><path class="cls-14" d="M91.417,53.973s2.076,21.5,17.011,29.471,3-1.1,3-1.1-6.769-25.73-12-28.651S91.417,53.973,91.417,53.973Z"/></g><path class="cls-23" d="M69.909,65.676s11.728-9.547,31.5-8.274c13.5.868,20.226,4.142,22.164,10.179,0,0,1.366-11.7-19.946-13.7C79.642,51.632,69.909,65.676,69.909,65.676Z"/><path class="cls-12" d="M70.133,67.471a.615.615,0,0,0-.224-.043l.041,0,.088,0,.17.008.336.02.667.053c.442.042.883.088,1.322.148q1.319.174,2.617.448a26.833,26.833,0,0,1,5.07,1.58A16.447,16.447,0,0,1,84.743,72.5a12.164,12.164,0,0,1,1.777,2,11.334,11.334,0,0,1,1.222,2.372v0l-.5.07a3.771,3.771,0,0,1,.163-1.721,2.3,2.3,0,0,1,.526-.869,1.592,1.592,0,0,1,1.144-.482,2.043,2.043,0,0,1,.647.147l.406.211c.264.144.472.288.711.433l1.315.855a34.542,34.542,0,0,0,5.407,2.895,29.961,29.961,0,0,0,5.8,1.829,36,36,0,0,0,6.054.646h0l-.352.075a22.66,22.66,0,0,0,2.607-1.473,20.484,20.484,0,0,0,2.4-1.805,14.137,14.137,0,0,0,1.995-2.151,8.641,8.641,0,0,0,1.257-2.507v0l.118-.253a.666.666,0,0,1,.7-.377,4.048,4.048,0,0,1,1.029.3,3.965,3.965,0,0,1,.888.531,2.782,2.782,0,0,1,.672.784,2.513,2.513,0,0,1,.3.932l0,.008-.344-.093a10.592,10.592,0,0,0,2.059-4.039,12.54,12.54,0,0,0,.34-4.509,8.547,8.547,0,0,0-1.654-4.037,14.131,14.131,0,0,0-3.2-3.109,24.556,24.556,0,0,0-8.313-3.561c-.75-.155-1.486-.357-2.244-.474L105.4,54.8c-1.533-.127-3.059-.3-4.6-.293-1.539-.068-3.084.008-4.626.067a40.948,40.948,0,0,0-4.574.412,39.208,39.208,0,0,0-8.833,2.328A32.664,32.664,0,0,0,74.8,61.656a19.534,19.534,0,0,0-3.252,3.032,7.408,7.408,0,0,0-1.1,1.746,2.258,2.258,0,0,0-.188.779.261.261,0,0,0,.007.135c.013.032,0,.088.022.1.01.008.035.083.012.051A.141.141,0,0,0,70.133,67.471Zm-.541,1.623a2.342,2.342,0,0,1-.585-.446,2.225,2.225,0,0,1-.528-1.344,3.779,3.779,0,0,1,.237-1.518A9.135,9.135,0,0,1,70.009,63.5,19.418,19.418,0,0,1,73.5,59.988,34.13,34.13,0,0,1,81.931,55.2a41.429,41.429,0,0,1,9.35-2.412,37.849,37.849,0,0,1,4.8-.392c1.595-.02,3.189-.056,4.787.055,1.6.034,3.19.255,4.78.43l2.373.416c.79.144,1.566.376,2.348.561a24.52,24.52,0,0,1,8.738,4.141,15.448,15.448,0,0,1,3.366,3.576,9.3,9.3,0,0,1,1.638,4.673,11.979,11.979,0,0,1-3.137,8.921.2.2,0,0,1-.333-.066l-.011-.027,0-.006a1.9,1.9,0,0,0-.479-.586,1.877,1.877,0,0,0-.627-.325,2.711,2.711,0,0,0-.7-.107,2.385,2.385,0,0,0-.668.063l.818-.631v0a10.308,10.308,0,0,1-1.522,3.061,15.8,15.8,0,0,1-2.248,2.429,22.062,22.062,0,0,1-2.595,1.956,24.3,24.3,0,0,1-2.836,1.6l-.008,0a.777.777,0,0,1-.344.072h0A32.173,32.173,0,0,1,103,81.98a31.432,31.432,0,0,1-6.122-2.024,36.14,36.14,0,0,1-5.535-3.224l-1.285-.9c-.2-.134-.422-.294-.615-.406l-.282-.165c-.043.007-.063-.041-.108-.043-.1-.021-.154,0-.276.078a1.551,1.551,0,0,0-.367.408A9.346,9.346,0,0,0,87.76,77l-.047.112a.241.241,0,0,1-.457-.043v0A10.686,10.686,0,0,0,85.979,74.9a11.415,11.415,0,0,0-1.767-1.776,15.466,15.466,0,0,0-4.406-2.4A25.543,25.543,0,0,0,74.9,69.5c-.836-.128-1.679-.223-2.522-.285-.421-.033-.844-.052-1.264-.069l-.63-.013h-.467l-.075,0H69.9A1.123,1.123,0,0,1,69.592,69.094Z"/><path class="cls-12" d="M88.726,74.9a19.35,19.35,0,0,1-1.878-1.917,22.4,22.4,0,0,1-1.607-2.1,20.229,20.229,0,0,1-2.383-4.666.171.171,0,0,1,.314-.134l0,.008a19.709,19.709,0,0,0,2.726,4.3,21.654,21.654,0,0,0,1.723,1.858,18.259,18.259,0,0,0,1.9,1.612l.02.014a.656.656,0,0,1-.77,1.063C88.758,74.923,88.741,74.91,88.726,74.9Z"/><path class="cls-12" d="M117.359,72.966a9.173,9.173,0,0,0,.534-2.4,14.971,14.971,0,0,0,.02-2.6,17.777,17.777,0,0,0-.427-2.614,21.86,21.86,0,0,0-.792-2.561.127.127,0,0,1,.07-.165.132.132,0,0,1,.159.059,22.509,22.509,0,0,1,1.145,2.487,18.735,18.735,0,0,1,.8,2.651,16.148,16.148,0,0,1,.346,2.79,10.4,10.4,0,0,1-.279,2.933.842.842,0,1,1-1.632-.418.935.935,0,0,1,.034-.106Z"/><path class="cls-12" d="M105.38,82.223a27.1,27.1,0,0,1-3.052-2.808A32.588,32.588,0,0,1,99.7,76.27a30.89,30.89,0,0,1-2.219-3.431,31.348,31.348,0,0,1-1.757-3.671.046.046,0,0,1,.024-.06.049.049,0,0,1,.06.024,31.126,31.126,0,0,0,1.979,3.522,30.23,30.23,0,0,0,2.4,3.229,31.626,31.626,0,0,0,2.768,2.9,26.232,26.232,0,0,0,3.082,2.489l.022.015a.578.578,0,1,1-.647.957Z"/><path class="cls-12" d="M110.616,80.99c-.351-1.757-.74-3.516-1.168-5.26-.218-.872-.447-1.74-.7-2.6a15.512,15.512,0,0,0-.932-2.509l0,0a.082.082,0,0,1,.036-.11.081.081,0,0,1,.107.031,15.675,15.675,0,0,1,1.111,2.486c.31.85.6,1.707.87,2.569q.813,2.586,1.512,5.207a.428.428,0,0,1-.827.221Z"/><path class="cls-12" d="M92.032,54.183a3.591,3.591,0,0,0-.184.776,8.194,8.194,0,0,0-.077.9,11.905,11.905,0,0,0,.094,1.851,18.407,18.407,0,0,0,.328,1.861c.145.618.318,1.23.507,1.841a.1.1,0,0,1-.191.076c-.276-.581-.538-1.171-.774-1.776a18.767,18.767,0,0,1-.609-1.858,12.689,12.689,0,0,1-.381-1.952,9.274,9.274,0,0,1-.057-1.021,4.622,4.622,0,0,1,.113-1.115.653.653,0,0,1,1.272.3.592.592,0,0,1-.034.1Z"/><path class="cls-12" d="M98.748,52.741a1.907,1.907,0,0,1,.55.179,3.129,3.129,0,0,1,.394.219,4.951,4.951,0,0,1,.667.507,8.667,8.667,0,0,1,1.072,1.165,17.193,17.193,0,0,1,1.6,2.586,28.535,28.535,0,0,1,1.193,2.741c.35.93.638,1.878.908,2.828a.039.039,0,0,1-.027.048.039.039,0,0,1-.046-.02c-.454-.878-.887-1.76-1.358-2.618-.453-.867-.958-1.7-1.465-2.523a19.661,19.661,0,0,0-1.712-2.285,8.614,8.614,0,0,0-.991-.938,3.677,3.677,0,0,0-.522-.361,1.8,1.8,0,0,0-.256-.128c-.064-.034-.2-.061-.147-.053a.677.677,0,1,1,.139-1.347Z"/><path class="cls-14" d="M152.73,150.421c-2.659,2.013-8.889,1.386-8.889,1.386a28.817,28.817,0,0,1-8.566,12.247l-.334-.415c.3-4.642,3.247-11.286,5.027-16.525s.94-5.086-1-8.12-1.112-5.4-1.112-5.4C140.878,134.2,152.73,150.421,152.73,150.421Z"/><path class="cls-24" d="M112.2,148.894l-.121-.172c1.881-1.223,8.758-10.689,9.749-10.6,1.112.1,2.427,5.754,3.732,6.058s9.273-11.195,12.3-10.589c0,0-.839,2.357,1.112,5.4s2.792,2.882,1,8.12-4.723,11.883-5.027,16.525l.334.415c-7.494,6.3-15.938,6.887-15.068,6.452,1.254-.627,2.123-7.453,2.123-7.453-3.853,1.527-9.172,8.747-11.053,11.448l-.212-.152C100.85,158.674,111.732,149.3,112.2,148.894Z"/><path class="cls-18" d="M111.651,148.813c.071.092.212.061.425-.091l.121.172c-.465.405-11.347,9.78-1.132,25.455l.212.152c-.445.637-.7,1.021-.7,1.021-4.389-.627-11.043-14.31-11.043-14.31-3.51,1.507-2,9.415-2,9.415-14.552-.748-17.313-9.91-17.313-9.91-2.266,2.255-1.507,6.9-1.507,6.9-22.593-11.044-18.214-29-18.214-29a42.861,42.861,0,0,0-7.524,2.246c-2.053-12.349,7.008-16.313,7.524-16.525-4.348,1.517-10.244-5.259-10.244-5.259,8.343.688,14.006-6.048,14.006-6.048,3.884-3.58,10.892,25.91,11.2,25.4s4.137-5.238,5.644-3.125S94.307,147,94.206,145.79s4.44-6.857,7.059-6.857S110.943,147.9,111.651,148.813Z"/><path class="cls-25" d="M80.129,134.768s-16.5,6.474-1.419,32.848c0,0-.812-4.858,1.506-6.9,0,0-2.857-4.379,3.217-10.283a9.634,9.634,0,0,0,2.842-10.008"/><path class="cls-26" d="M57.705,139.421a12.381,12.381,0,0,1-.347-8.319c.8-3.142,2.969-5.47,5.408-7.607a23.531,23.531,0,0,0-6.119,3.235c-3.023,1.99-3.88,11.563-3.673,14.12"/><path class="cls-12" d="M79.707,160.889A12.061,12.061,0,0,1,79.38,159a10.418,10.418,0,0,1-.024-1.894,7.235,7.235,0,0,1,.391-1.855,4.846,4.846,0,0,1,1-1.6.11.11,0,0,1,.167.142l0,0A5.054,5.054,0,0,0,80,157.126a9.721,9.721,0,0,0,.228,1.746,11.136,11.136,0,0,0,.493,1.669l0,.012a.539.539,0,1,1-1,.4C79.72,160.93,79.713,160.908,79.707,160.889Z"/><path class="cls-12" d="M122.224,162.83a8.824,8.824,0,0,1,2.275-.636,3.671,3.671,0,0,1,2.308.333.06.06,0,0,1,.022.081.063.063,0,0,1-.08.023,3.462,3.462,0,0,0-2.2-.134,8.425,8.425,0,0,0-2.105.775l-.012.006a.248.248,0,0,1-.228-.44Z"/><path class="cls-12" d="M60.31,123.819a12,12,0,0,0,2.348-1.088,5.352,5.352,0,0,0,1.01-.78,1.968,1.968,0,0,0,.6-1.051.143.143,0,0,1,.16-.125.147.147,0,0,1,.125.142,2.332,2.332,0,0,1-.517,1.346,5.855,5.855,0,0,1-.978,1.022,12.793,12.793,0,0,1-2.339,1.539.546.546,0,0,1-.5-.969.651.651,0,0,1,.072-.031Z"/><path class="cls-12" d="M143.051,151.551c.111-.371.225-.827.315-1.248a11.244,11.244,0,0,0,.194-1.3,7.7,7.7,0,0,0-.016-1.3,5.449,5.449,0,0,0-.318-1.293l0-.014a.191.191,0,0,1,.3-.214,3.613,3.613,0,0,1,.947,1.252,5.691,5.691,0,0,1,.405,1.523,7.465,7.465,0,0,1,.03,1.552,7.064,7.064,0,0,1-.28,1.545.825.825,0,0,1-1.58-.478Z"/><path class="cls-12" d="M64.77,113.508a19.613,19.613,0,0,1-3.051,2.679,18.657,18.657,0,0,1-3.552,1.98,15.922,15.922,0,0,1-3.9,1.113,14.61,14.61,0,0,1-4.028.015l.184-.366h0a22.844,22.844,0,0,0,4.619,3.734,9.754,9.754,0,0,0,2.642,1.148,4.4,4.4,0,0,0,2.638-.046.588.588,0,0,1,.467,1.079l-.052.025h0a12.409,12.409,0,0,0-3.7,2.744,12.755,12.755,0,0,0-2.511,3.887c-.159.353-.253.733-.384,1.1-.058.185-.127.366-.179.553l-.117.571c-.072.381-.174.756-.222,1.142l-.1,1.165a6.618,6.618,0,0,0-.03,1.17l.025,1.174c.069.782.194,1.562.285,2.342l-1.123-.631,0,0c1.291-.389,2.567-.719,3.866-1.011a29.041,29.041,0,0,1,3.933-.63h.023a.166.166,0,0,1,.178.152.176.176,0,0,1-.006.061l0,0a21.648,21.648,0,0,0,.438,9.031,25.576,25.576,0,0,0,3.779,8.211l1.4,1.788.349.446.395.409.794.812a30.639,30.639,0,0,0,3.389,3.016,17.159,17.159,0,0,0,1.853,1.313l1.894,1.257c1.328.734,2.678,1.431,4.013,2.148l-.841.624,0-.016A13.453,13.453,0,0,1,78,165.786a12.017,12.017,0,0,1,.15-1.905A6.57,6.57,0,0,1,79.8,160.3a.584.584,0,0,1,.97.213l.011.034,0,.007a11.906,11.906,0,0,0,2.788,4.071,16.268,16.268,0,0,0,4.118,2.893l1.153.531c.39.163.8.287,1.2.434a22.561,22.561,0,0,0,2.452.693c.831.187,1.684.288,2.523.438l2.561.208-.836.959,0-.015a22.432,22.432,0,0,1-.148-2.648,18.5,18.5,0,0,1,.19-2.635,8.655,8.655,0,0,1,.761-2.566,3.653,3.653,0,0,1,1.922-1.886l.021-.008a.192.192,0,0,1,.243.106l.006.014a76.056,76.056,0,0,0,4.845,7.779,32.735,32.735,0,0,0,2.854,3.5,12.953,12.953,0,0,0,1.617,1.447,3.819,3.819,0,0,0,1.662.777l-.865.39.008-.013a75.076,75.076,0,0,1,5.537-6.762,37.713,37.713,0,0,1,3.142-3.05,12.819,12.819,0,0,1,3.714-2.385l.013-.005a.238.238,0,0,1,.307.139.231.231,0,0,1,.012.124l0,.016a43.207,43.207,0,0,1-.87,4.935,7.435,7.435,0,0,1-.957,2.431,1.294,1.294,0,0,1-.309.289c-.022.018-.077.055-.073.056a.045.045,0,0,0,.019-.014.325.325,0,0,0,.076-.094.344.344,0,0,0,.031-.177.326.326,0,0,0-.126-.226.19.19,0,0,0-.037-.026c-.039-.017-.048-.016-.037-.016l.03,0a3.567,3.567,0,0,0,.555-.028c.395-.045.8-.113,1.194-.194a28.948,28.948,0,0,0,9.031-3.67,28.235,28.235,0,0,0,7.278-6.405,28.932,28.932,0,0,0,4.664-8.452.83.83,0,0,1,.841-.55l.038,0h.006c.705.1,1.463.158,2.2.192a21.052,21.052,0,0,0,2.219-.008,12.563,12.563,0,0,0,2.169-.288,6.041,6.041,0,0,0,1.957-.772l-.087.587,0-.006q-2.611-3.468-5.35-6.85c-1.828-2.244-3.664-4.488-5.637-6.578a19.363,19.363,0,0,0-3.112-2.811,1.305,1.305,0,0,0-.686-.261,2.239,2.239,0,0,0-.785.245,9.043,9.043,0,0,0-1.659,1.165,71.689,71.689,0,0,0-5.952,6.235c-.488.543-.978,1.085-1.5,1.618-.266.266-.527.531-.834.79a3.806,3.806,0,0,1-.519.388l-.158.095c-.076.034-.154.065-.233.094a1.092,1.092,0,0,1-.7-.01,2.425,2.425,0,0,1-1.088-1.039,10.1,10.1,0,0,1-.558-1.026c-.326-.679-.606-1.354-.895-2.012a10.352,10.352,0,0,0-.921-1.779c-.071-.109-.178-.169-.109-.133,0,.046.322.007.277,0,0,0-.058.035-.106.069a7.063,7.063,0,0,0-.714.665c-.967,1.015-1.892,2.141-2.817,3.251l-2.785,3.357c-.473.557-.95,1.113-1.449,1.661-.25.274-.5.546-.778.816a5.047,5.047,0,0,1-1,.814,1.367,1.367,0,0,1-.261.109.92.92,0,0,1-.558,0,.838.838,0,0,1-.372-.24l-.075-.09-.083-.106-.335-.422-.68-.839-1.389-1.656c-.938-1.091-1.9-2.161-2.9-3.182a21.85,21.85,0,0,0-3.152-2.764,4.417,4.417,0,0,0-.816-.448.97.97,0,0,0-.664-.074,4.586,4.586,0,0,0-1.636.8,15.826,15.826,0,0,0-2.956,2.888,13.167,13.167,0,0,0-1.167,1.68c-.064.136-.149.284-.2.409l-.064.175c-.03.072.006.031-.015.049,0,.015-.009-.028-.009.034a.847.847,0,0,1-.158.55.771.771,0,0,1-.271.244.852.852,0,0,1-.272.1.979.979,0,0,1-.3.006,1.646,1.646,0,0,1-.478-.143,5.834,5.834,0,0,1-.564-.3,39.792,39.792,0,0,1-3.618-2.594q-1.728-1.353-3.4-2.767c-1.116-.942-2.218-1.9-3.3-2.9-.539-.5-1.072-1.008-1.594-1.569-.13-.141-.26-.288-.391-.452a2.845,2.845,0,0,0-.261-.3.437.437,0,0,0-.421-.093,3.768,3.768,0,0,0-1.541.837,13.389,13.389,0,0,0-1.484,1.421c-.233.256-.459.524-.665.787-.045.06-.112.142-.134.179l-.024.035c-.1.108.209-.219-.231.247-.861.326-1.07-.248-1.036-.172a1.015,1.015,0,0,1-.116-.195l-.043-.1c-.088-.22-.14-.389-.2-.572-.224-.712-.422-1.408-.624-2.108-.8-2.794-1.595-5.578-2.455-8.341s-1.767-5.509-2.829-8.176a33.7,33.7,0,0,0-1.787-3.866,8.67,8.67,0,0,0-1.139-1.641,1.638,1.638,0,0,0-.589-.436.244.244,0,0,0-.143-.013A.657.657,0,0,0,64.77,113.508Zm-1.009-.964a1.834,1.834,0,0,1,.789-.464,1.647,1.647,0,0,1,.929.029,2.912,2.912,0,0,1,1.178.8,9.9,9.9,0,0,1,1.353,1.918,35.076,35.076,0,0,1,1.881,4.028c1.095,2.726,2.016,5.5,2.893,8.274s1.684,5.577,2.491,8.364c.2.694.4,1.394.618,2.066.052.162.111.339.159.457l.011.027s.01.006-.049-.076c.046.09-.143-.455-.984-.145-.423.452-.1.1-.19.193l.053-.078c.076-.115.126-.172.189-.258.241-.309.483-.6.737-.878a14.786,14.786,0,0,1,1.655-1.592,5.028,5.028,0,0,1,2.272-1.159,2.182,2.182,0,0,1,.824.025,2.015,2.015,0,0,1,.779.409,4.209,4.209,0,0,1,.463.509c.1.119.207.244.324.369.468.5.99,1,1.514,1.481,1.055.97,2.148,1.914,3.253,2.841s2.227,1.837,3.364,2.721,2.3,1.768,3.455,2.483a4.285,4.285,0,0,0,.4.214c.046.025.124.04.038.024a.568.568,0,0,0-.163.009.751.751,0,0,0-.21.076.8.8,0,0,0-.221.2.646.646,0,0,0-.127.421c0,.017,0-.07.008-.1a1.982,1.982,0,0,1,.076-.485l.122-.336c.087-.211.185-.379.279-.569a14.562,14.562,0,0,1,1.319-1.89,17.274,17.274,0,0,1,3.273-3.164,5.929,5.929,0,0,1,2.264-1.048,2.544,2.544,0,0,1,.759-.031,2.781,2.781,0,0,1,.7.195,5.8,5.8,0,0,1,1.09.6,23.183,23.183,0,0,1,3.381,2.976c1.028,1.058,2,2.152,2.953,3.266l1.4,1.686.688.856.34.431.085.109s.059.077.011.015a.61.61,0,0,0-.258-.169.494.494,0,0,0-.292-.013c-.032.01-.022.009-.011,0a4.256,4.256,0,0,0,.673-.567c.244-.24.487-.5.728-.757.48-.523.951-1.067,1.419-1.616l2.79-3.335c.939-1.116,1.861-2.235,2.9-3.319a8,8,0,0,1,.886-.809,1.951,1.951,0,0,1,.356-.217,1.088,1.088,0,0,1,.381-.1,1.081,1.081,0,0,1,.42.07,1.7,1.7,0,0,1,.7.578,11.025,11.025,0,0,1,1.086,2.075c.292.673.567,1.34.867,1.971a8.817,8.817,0,0,0,.477.889,1.718,1.718,0,0,0,.408.494.692.692,0,0,1-.083-.018c-.063-.005-.118.025-.09.008a.023.023,0,0,1,.02-.006l.074-.046a2.735,2.735,0,0,0,.353-.262c.251-.206.5-.456.753-.7.5-.5.988-1.029,1.477-1.561a72.366,72.366,0,0,1,6.136-6.292,10.225,10.225,0,0,1,1.915-1.306,3.348,3.348,0,0,1,1.291-.357c.133.006.267.017.4.032.122.033.242.074.361.115a4.048,4.048,0,0,1,.577.3,20.1,20.1,0,0,1,3.317,3.036,156.671,156.671,0,0,1,10.841,13.708l0,.006a.4.4,0,0,1-.062.568h0l-.025.02a6.942,6.942,0,0,1-2.181,1.115,13.642,13.642,0,0,1-2.323.533,22.4,22.4,0,0,1-2.347.227c-.788.035-1.556.048-2.37.011h-.009l.878-.546a30.492,30.492,0,0,1-5.186,8.74,29.443,29.443,0,0,1-7.8,6.443,29.828,29.828,0,0,1-9.438,3.5c-.417.071-.837.13-1.267.165a4.312,4.312,0,0,1-.688.009.853.853,0,0,1-.123-.02.445.445,0,0,1-.111-.039.578.578,0,0,1-.073-.042.4.4,0,0,1-.146-.258.327.327,0,0,1,.042-.21.435.435,0,0,1,.1-.124l.085-.055c.048-.028.031-.027.05-.041.04-.052.093-.044.142-.133a7.107,7.107,0,0,0,.889-2.158,42.748,42.748,0,0,0,.982-4.839v-.015l.332.258a12.234,12.234,0,0,0-3.347,2.529A36.466,36.466,0,0,0,116.244,169a73.941,73.941,0,0,0-4.913,7l-.008.011-.054.074a.8.8,0,0,1-.811.315,5.373,5.373,0,0,1-2.406-1.276,14.34,14.34,0,0,1-1.691-1.75,33.9,33.9,0,0,1-2.693-3.849,76.941,76.941,0,0,1-4.3-8.205l-.007-.013.264.1a3.1,3.1,0,0,0-1.431,1.8,7.806,7.806,0,0,0-.4,2.379,17.389,17.389,0,0,0,.115,2.464,21.156,21.156,0,0,0,.425,2.421l0,.012.009.059a.778.778,0,0,1-.64.9.793.793,0,0,1-.206.006l-2.685-.274c-.886-.174-1.78-.3-2.657-.518a24.154,24.154,0,0,1-2.6-.793c-.423-.165-.854-.308-1.269-.492l-1.229-.6a17.649,17.649,0,0,1-4.4-3.231,13,13,0,0,1-3-4.634l0-.013.982.247a5.42,5.42,0,0,0-1.317,2.94,10.892,10.892,0,0,0-.135,1.719,12.45,12.45,0,0,0,.109,1.72l0,.011.007.051a.572.572,0,0,1-.848.573c-1.354-.765-2.718-1.509-4.059-2.292l-1.915-1.333a17.839,17.839,0,0,1-1.87-1.391,31.487,31.487,0,0,1-3.413-3.179l-.8-.853-.4-.429-.351-.468-1.4-1.871a26.224,26.224,0,0,1-3.689-8.514,22.046,22.046,0,0,1-.235-9.241v0l.194.211a28.126,28.126,0,0,0-3.69,1.244c-1.2.488-2.4,1.023-3.547,1.591h-.005l-.064.025a.783.783,0,0,1-1.059-.656c-.082-.844-.193-1.683-.246-2.527l0-1.277a7.662,7.662,0,0,1,.064-1.274l.147-1.272c.063-.422.184-.837.274-1.255l.147-.625c.061-.206.141-.406.211-.609.153-.4.271-.815.455-1.2a14.132,14.132,0,0,1,2.88-4.231,13.5,13.5,0,0,1,4.2-2.939h0l.414,1.1a5.474,5.474,0,0,1-3.307-.108,10.678,10.678,0,0,1-2.8-1.42,23.445,23.445,0,0,1-4.518-4.128h0a.213.213,0,0,1,.141-.364l.043,0a16.271,16.271,0,0,0,3.831-.436,15.258,15.258,0,0,0,3.593-1.288,20.75,20.75,0,0,0,3.246-2.007A18.9,18.9,0,0,0,63.761,112.544Z"/><path class="cls-14" d="M93.869,95.988s6.849,3.648,10.508,1.424a6.126,6.126,0,0,0,3.08-5.918s3.049,6.566-3.08,8.378S93.869,95.988,93.869,95.988Z"/><path class="cls-24" d="M87.8,93.893c-1.471-.46-2.6-.763-2.6-.763l-1.054.316s-2.126,5.725,1.937,9.526a10.763,10.763,0,0,0,3.8,2.239C85.194,100.242,86.273,96.235,87.8,93.893Z"/><path class="cls-14" d="M94.331,96.8c-.772-.967-4.116-2.149-6.535-2.905-1.523,2.342-2.6,6.349,2.081,11.318,4.2,1.459,9.378.6,11.367-4.455C101.244,100.756,95.572,98.354,94.331,96.8Z"/><path class="cls-24" d="M124.146,98c-1.816.5-3.882.812-3.882.812.332,4.625,4.111,6.473,7.679,6.184a8.754,8.754,0,0,0,2.545-.6C125.385,103.562,124.264,100.327,124.146,98Z"/><path class="cls-14" d="M135.133,96.51l-.968-1.546a2.7,2.7,0,0,1-1.946,1.115c-2.038.1-4.886.341-5.708.973a7.762,7.762,0,0,1-2.365.951c.118,2.324,1.239,5.559,6.342,6.4a7.752,7.752,0,0,0,.9-.425C135.411,101.719,135.133,96.51,135.133,96.51Z"/><path class="cls-12" d="M82.32,79.561a7.793,7.793,0,0,0-4.1,4.7,8.175,8.175,0,0,0-.266,3.1,6.143,6.143,0,0,0,.849,2.852,3.767,3.767,0,0,0,2.417,1.379c1.027.242,2.148.383,3.267.589a28.769,28.769,0,0,1,6.627,1.944,33.67,33.67,0,0,1,4.7,2.489c.441.271.874.546,1.3.819A13.322,13.322,0,0,0,99.9,98.861a7.7,7.7,0,0,0,2.961.34,5.926,5.926,0,0,0,2.8-.732,4.059,4.059,0,0,0,1.738-2.057,6.708,6.708,0,0,0-.747-5.862l0-.006a.135.135,0,0,1,.041-.187.136.136,0,0,1,.149,0,6.036,6.036,0,0,1,2.172,6.61,5.418,5.418,0,0,1-2.412,3.056,7.759,7.759,0,0,1-3.618,1.033,9.566,9.566,0,0,1-3.683-.388,13.52,13.52,0,0,1-3.191-1.64,41.032,41.032,0,0,0-5.726-3.258,26.965,26.965,0,0,0-6.2-2.031c-1.08-.237-2.184-.407-3.334-.715-.287-.081-.579-.184-.867-.276a9.545,9.545,0,0,1-.865-.407,4.21,4.21,0,0,1-.8-.591l-.362-.356c-.1-.133-.192-.273-.287-.411a7.3,7.3,0,0,1-.976-3.539,8.635,8.635,0,0,1,.507-3.537,7.6,7.6,0,0,1,5.046-4.579.122.122,0,0,1,.149.085.12.12,0,0,1-.063.14Z"/><path class="cls-12" d="M118.356,89.214a8.578,8.578,0,0,0-1.3,2.985,5.648,5.648,0,0,0,.191,3.048,6.644,6.644,0,0,0,.7,1.34,5.73,5.73,0,0,0,.453.522,5.078,5.078,0,0,0,.543.4,4.909,4.909,0,0,0,2.836.453,25.871,25.871,0,0,0,6.3-1.825c2.081-.842,4.151-1.771,6.24-2.681a.856.856,0,0,1,1.127.442c.184.42-.236.819-.453.952a39.209,39.209,0,0,1-6.237,2.994c-1.073.432-2.179.818-3.305,1.158a19.157,19.157,0,0,1-3.544.649,6.487,6.487,0,0,1-3.781-.8,5.083,5.083,0,0,1-.8-.652,6.832,6.832,0,0,1-.615-.808,6.908,6.908,0,0,1-.744-1.75,6.276,6.276,0,0,1,.183-3.7,7.44,7.44,0,0,1,1.963-2.967.177.177,0,0,1,.265.231Z"/><path class="cls-12" d="M84.5,93.017a12.155,12.155,0,0,0,.214,7.008,7.989,7.989,0,0,0,5.008,4.4,12.227,12.227,0,0,0,3.363.7,8.311,8.311,0,0,0,3.279-.529,7.74,7.74,0,0,0,4.322-4.748l.019-.051a.856.856,0,0,1,1.6.61l-.011.028a10.858,10.858,0,0,1-2.015,3.427,7.989,7.989,0,0,1-3.339,2.269,9.89,9.89,0,0,1-3.946.5,12.388,12.388,0,0,1-3.772-.956,11.607,11.607,0,0,1-3.269-2.063,7.511,7.511,0,0,1-2.135-3.265,12.21,12.21,0,0,1,.239-7.474.233.233,0,0,1,.449.122Z"/><path class="cls-12" d="M120.569,98.859a5.2,5.2,0,0,0,.713,2.869,5.986,5.986,0,0,0,2.109,2.077,6.084,6.084,0,0,0,2.853.649,9.031,9.031,0,0,0,2.964-.408,6.3,6.3,0,0,0,4.213-3.64,9.744,9.744,0,0,0-.043-5.756l-.007-.025a.76.76,0,0,1,.626-.938.782.782,0,0,1,1.03.5l.01.041a11.232,11.232,0,0,1-.323,6.714A7.559,7.559,0,0,1,129.5,105.1a10.027,10.027,0,0,1-3.305.292,6.871,6.871,0,0,1-3.223-.922,6.7,6.7,0,0,1-2.242-2.438A5.724,5.724,0,0,1,120.1,98.8a.235.235,0,0,1,.469.037Z"/></g><path class="cls-8" d="M176.052,111.605a76.791,76.791,0,1,0-150.995,1.608C103.818,122.941,154.488,116.031,176.052,111.605Z"/></g></g></svg>