<svg xmlns="http://www.w3.org/2000/svg" width="21.598" height="21.604" viewBox="0 0 21.598 21.604">
  <g id="Group_1298" data-name="Group 1298" transform="translate(1112.819 200.632)">
    <path id="Path_5577" data-name="Path 5577" d="M-1102.654-200.632h1.266a1.16,1.16,0,0,0,.163.035,10.278,10.278,0,0,1,4.712,1.486,10.661,10.661,0,0,1,5.125,7.421c.076.4.113.817.168,1.225v1.266c-.013.075-.028.149-.039.224-.068.465-.106.936-.206,1.394a10.492,10.492,0,0,1-4.009,6.32,10.476,10.476,0,0,1-8.815,1.978,10.426,10.426,0,0,1-6.29-3.981,10.5,10.5,0,0,1-2.185-7.649,10.437,10.437,0,0,1,2.635-6.038,10.605,10.605,0,0,1,6.247-3.514C-1103.475-200.536-1103.063-200.577-1102.654-200.632Zm8.177,10.814a7.537,7.537,0,0,0-7.531-7.55,7.505,7.505,0,0,0-7.55,7.523,7.5,7.5,0,0,0,7.522,7.55A7.537,7.537,0,0,0-1094.476-189.818Zm-15.876.817v-1.655H-1112V-189Zm9.122-9.122v-1.654h-1.646v1.654Zm-1.646,16.581v1.652h1.644v-1.652Zm-5.608-13.6,1.14-1.144-1.108-1.1-1.137,1.138Zm11.774-1.133,1.126,1.126,1.128-1.135-1.118-1.116Zm-11.759,11.757-1.125,1.131,1.121,1.134,1.139-1.129Zm11.745,1.121,1.133,1.128,1.136-1.1-1.144-1.149Zm4.613-5.6v-1.656h-1.641V-189Z" fill="#cd894c"/>
    <path id="Path_5578" data-name="Path 5578" d="M-990.355-84.268a6.14,6.14,0,0,1-6.141,6.148,6.112,6.112,0,0,1-6.148-6.134A6.112,6.112,0,0,1-996.51-90.4,6.14,6.14,0,0,1-990.355-84.268Zm-5.927,2.25c.076.059.109.081.139.107a1.8,1.8,0,0,0,2.714-.5,2.194,2.194,0,0,0-.216-2.442A16.271,16.271,0,0,0-995.22-86.5c-.405-.4-.843-.758-1.273-1.141-.128.109-.243.2-.35.3-.734.686-1.476,1.363-2.2,2.063a2.509,2.509,0,0,0-.764,2.161,1.8,1.8,0,0,0,2.115,1.613,1.73,1.73,0,0,0,.953-.522l-.33,1.194h1.111Z" transform="translate(-105.517 -105.57)" fill="#cd894c"/>
  </g>
</svg>
