<svg xmlns="http://www.w3.org/2000/svg" xmlns:xlink="http://www.w3.org/1999/xlink" width="174" height="204.822" viewBox="0 0 174 204.822">
  <defs>
    <linearGradient id="linear-gradient" x1="0.836" y1="-0.035" x2="0.5" y2="1" gradientUnits="objectBoundingBox">
      <stop offset="0" stop-color="#3add9a"/>
      <stop offset="1" stop-color="#ee65ac"/>
    </linearGradient>
  </defs>
  <path id="Path_10682" data-name="Path 10682" d="M1249.374,156.523a8.852,8.852,0,0,1-.82-2.536c-.052-12.933-.034-25.867-.036-38.8a40.728,40.728,0,0,1,9.287-26.212c.248-.31.485-.63.622-.808L1247.54,77.285c-.609.581-1.344,1.328-2.127,2.021a7.078,7.078,0,0,1-9.943-.159,6.96,6.96,0,0,1-.021-9.9c1.457-1.531,3.125-2.864,4.75-4.334-.693-.769-1.026-1.175-1.4-1.544q-12.339-12.294-24.687-24.58c-2.767-2.753-3.519-6.22-2.041-9.5a8.115,8.115,0,0,1,7.895-4.759,9.255,9.255,0,0,1,6.077,3.109q12.424,12.491,24.917,24.915c.138.137.318.232.944.681,1.224-1.372,2.427-2.87,3.783-4.212,3.259-3.224,7.587-3.332,10.5-.351,2.855,2.924,2.7,7.159-.426,10.347a23.251,23.251,0,0,1-2.051,1.65c3.585,3.551,7.093,6.575,10.037,10.072,2.883,3.423,5.76,4.967,10.357,3.485,2.634-.85,5.689-.5,8.553-.5a2.823,2.823,0,0,0,2.718-1.558c3.45-5.7,1.995-14.363-3.149-18.543-5.023-4.083-10.059-8.151-15.033-12.294a3.524,3.524,0,0,1-1.341-2.226c-.032-14.862,1.914-29.376,8.308-42.992,4.072-8.673,9.679-16.094,18.167-20.995a6.361,6.361,0,0,1,1.771-.913c3.339-.656,3.971-2.809,3.6-5.812a21.21,21.21,0,0,1,.133-5.182,8.722,8.722,0,0,1,6.151-7.436c2.368-.866,4.8-1.546,7.17-2.419a22.706,22.706,0,0,1,17.93.392,58.8,58.8,0,0,0,31.209,5.224,2.734,2.734,0,0,1,2.226.76,2.738,2.738,0,0,1-.406,2.29c-3.635,5.585-8.237,9.826-15.325,10.287a25.433,25.433,0,0,1-12.4-2.7c-5.32-2.467-10.51-5.213-15.763-7.824-1.006-.5-2.047-.927-2.879-1.3.083,3.664.125,7.276.29,10.883a2.166,2.166,0,0,0,.96,1.632c11.028,4.48,17.785,13.08,22.682,23.422,4.975,10.508,7.077,21.731,7.911,33.232.207,2.857.2,5.73.392,8.588a3.515,3.515,0,0,1-1.527,3.233q-7.8,6.271-15.529,12.637c-4.918,4.048-6.015,13.677-2.043,18.6a3.568,3.568,0,0,0,2.579.934,41.16,41.16,0,0,1,24.047,6.258c12.6,8.084,19.324,19.7,19.663,34.64.3,13.127.083,26.266.039,39.4a10,10,0,0,1-.732,2.592ZM1382,153.239c.029-.408.072-.727.072-1.045,0-12.865.089-25.732-.062-38.6a36.6,36.6,0,0,0-5.384-18.194,3.464,3.464,0,0,0-3.465-2c-7.681.1-15.364.048-23.046.038-2.573,0-2.85-.3-2.858-2.909s0-5.2,0-7.8v-5.9c-2.119,0-3.921-.084-5.706.051a2.025,2.025,0,0,0-1.487,1.083,14.781,14.781,0,0,1-7.256,8.69c-7.959,4.577-16.471,5.2-25.163,2.784-6.377-1.776-11.892-4.866-13.92-11.883a1.153,1.153,0,0,0-.826-.677c-2.1-.058-4.2-.031-6.484-.031,0,4.827.008,9.282,0,13.737-.006,2.6-.255,2.846-2.884,2.849-7.749.009-15.5.042-23.247-.03a3.07,3.07,0,0,0-3.024,1.728,38.462,38.462,0,0,0-5.581,20.149c.031,12.065.006,24.131.012,36.2,0,.574.082,1.148.129,1.76h24.495v-2.251q0-10.6,0-21.2c0-.6-.169-1.324.1-1.766a2.805,2.805,0,0,1,1.67-1.315c.391-.05,1.032.83,1.327,1.412a3.8,3.8,0,0,1,.063,1.579q0,10.7,0,21.4v2.129h74.737v-2.477q0-10.8,0-21.6c0-1.191.06-2.509,1.591-2.5s1.544,1.345,1.543,2.523q-.01,10.9,0,21.8v2.261ZM1321.159,26.014c0-2.139.076-4.132-.024-6.117a2.82,2.82,0,0,1,1.905-3.088c5.65-2.555,11.244-5.234,16.869-7.845,2.318-1.076,3.228-.5,3.236,2.042.017,5.134-.048,10.268.037,15.4a3.293,3.293,0,0,1-1.908,3.356c-3.514,1.914-6.928,4.011-10.435,5.937a2.6,2.6,0,0,0-1.563,2.658c.076,6.329.031,12.659.04,18.988,0,.561.083,1.121.135,1.783a4.554,4.554,0,0,0,.735-.356c7.915-6.441,15.839-12.869,23.7-19.372a3.118,3.118,0,0,0,.861-2.2,108.916,108.916,0,0,0-3.567-27.472c-2.813-10.229-7.118-19.672-14.963-27.135-9.568-9.1-22.176-10.806-32.913-4.383-7.865,4.705-12.922,11.834-16.634,19.988-5.6,12.294-7.457,25.348-7.716,38.718a3.381,3.381,0,0,0,1.407,3.03c5.985,4.793,11.914,9.655,17.865,14.493,1.934,1.572,3.873,3.139,6.125,4.964,0-7.61.031-14.732-.057-21.852a2.644,2.644,0,0,0-1.284-1.713c-3.6-2.162-7.307-4.157-10.871-6.379a3.522,3.522,0,0,1-1.454-2.483c-.131-5.4-.081-10.8-.059-16.2.01-2.3.894-2.848,3.031-1.862,5.752,2.653,11.478,5.362,17.239,8a2.525,2.525,0,0,1,1.668,2.64c-.052,2.116-.014,4.235-.014,6.467Zm5.032,25.864c-6.35,2.808-12.4,3.468-18.666.455,0,3.381.055,6.442-.038,9.5-.024.767-.369,2.023-.834,2.163a3.387,3.387,0,0,1-2.435-.658c-1.428-.958-2.717-2.123-4.411-3.482,1.179,5.849.6,10.846-2.67,15.373a2.732,2.732,0,0,0-.172,2.026,10.669,10.669,0,0,0,5.664,6.679c9.462,5.06,19.035,5.024,28.527.08a11.4,11.4,0,0,0,5.635-6.253,3.575,3.575,0,0,0-.386-3.141,31.907,31.907,0,0,1-2.882-7.535c-.47-2.2-.1-4.581-.1-6.84-1.117.894-2.448,2.087-3.915,3.078a3.39,3.39,0,0,1-2.433.673c-.469-.139-.826-1.4-.848-2.164C1326.137,58.65,1326.191,55.465,1326.191,51.878ZM1293.78,12.443c0,4.534.051,8.662-.031,12.786a2.457,2.457,0,0,0,1.5,2.49c3.384,1.871,6.682,3.9,10.087,5.732a3.581,3.581,0,0,1,2.239,3.759c-.17,3.123.078,6.269-.095,9.392a2.915,2.915,0,0,0,2.077,3.16c5.463,2.477,10.688,1.448,15.776-1.082a2.356,2.356,0,0,0,.821-1.791c.08-3.331.1-6.665.013-10a3.112,3.112,0,0,1,1.819-3.192c3.629-1.978,7.19-4.081,10.747-6.189.5-.3,1.176-.892,1.185-1.361.09-4.484.054-8.97.054-13.715-4.3,2-8.214,4.017-12.287,5.633-2.591,1.028-3.889,2.381-3.378,5.259a25.33,25.33,0,0,1,.041,3.792c.034,1.493-.63,2.2-2.162,2.19q-5.309-.047-10.619,0c-1.541.017-2.18-.687-2.157-2.182.031-2.065.063-4.134-.033-6.2a2.1,2.1,0,0,0-.814-1.567C1303.771,17.057,1298.937,14.841,1293.78,12.443ZM1227.473,34.13a8.177,8.177,0,0,1-6.267,6.449l21.082,21.089,6.5-6.272Zm12.784,44.479a16.556,16.556,0,0,0,3.231-1.876q10.132-9.966,20.139-20.056c1.851-1.862,1.877-4.264.238-5.866s-3.975-1.506-5.868.365c-4.7,4.645-9.356,9.329-14.031,14-2.077,2.074-4.178,4.125-6.22,6.233-1.229,1.268-1.712,2.895-.712,4.378A16.809,16.809,0,0,0,1240.256,78.608Zm33.97-2.333-12.652-12.6-11.056,11.061,10.3,10.21ZM1367.53-37.4c-.1-.073-.189-.206-.287-.209-.532-.015-1.066-.009-1.6.007a57.417,57.417,0,0,1-24.253-4.32,68.419,68.419,0,0,0-6.938-2.561,16.651,16.651,0,0,0-10.739.4c6.151,3.09,12.2,6.157,18.279,9.173a35.318,35.318,0,0,0,12.5,4.031C1359.452-30.427,1365.243-33.269,1367.53-37.4ZM1283.1,90.186V77.425a38.428,38.428,0,0,0-22.147,12.761Zm67.468-12.748V90.216h22.263A38.539,38.539,0,0,0,1350.568,77.438Zm-27.74-105.982c0-2.333.059-4.713-.014-7.088a5.9,5.9,0,0,0-5.406-5.869,5.77,5.77,0,0,0-6.4,4.979,69.352,69.352,0,0,0-.063,7.979ZM1214.512,32.69a4.967,4.967,0,0,0,9.932-.169,5.038,5.038,0,0,0-5.061-4.835A4.963,4.963,0,0,0,1214.512,32.69Z" transform="translate(-1211.333 48.3)" fill="url(#linear-gradient)"/>
</svg>
