<svg xmlns="http://www.w3.org/2000/svg" xmlns:xlink="http://www.w3.org/1999/xlink" width="53.265" height="71.833" viewBox="0 0 53.265 71.833">
  <defs>
    <filter id="Path_5422" x="0" y="0" width="53.265" height="71.833" filterUnits="userSpaceOnUse">
      <feOffset dy="3" input="SourceAlpha"/>
      <feGaussianBlur stdDeviation="3" result="blur"/>
      <feFlood flood-color="#842469"/>
      <feComposite operator="in" in2="blur"/>
      <feComposite in="SourceGraphic"/>
    </filter>
  </defs>
  <g transform="matrix(1, 0, 0, 1, 0, 0)" filter="url(#Path_5422)">
    <path id="Path_5422-2" data-name="Path 5422" d="M2249.669,509.383c-4.548.618-8.582,1.839-10.688,6.155l.235.35a4.9,4.9,0,0,0,.613-.537,12.849,12.849,0,0,1,9.726-4.665c1.108-.057,1.332-.479,1.319-1.457-.042-3.157-.029-6.316-.012-9.474.011-2.077,1.1-3.265,2.91-3.241a2.911,2.911,0,0,1,2.99,3.221c-.026,5.26.29,10.561-.251,15.77a16.744,16.744,0,0,1-17.4,14.779c-9.08-.462-16.211-7.408-16.457-16.375-.2-7.363-.064-14.736-.041-22.1a2.965,2.965,0,1,1,5.912.017c.027,3.91-.008,7.82.035,11.729a4.258,4.258,0,0,0,.526,1.354c.2-.443.573-.885.575-1.329.041-6.416.021-12.832.041-19.249.006-2.009,1.032-3.213,2.724-3.312,1.906-.112,3.132,1.161,3.139,3.348.017,5.664-.016,11.329.036,16.993a7.371,7.371,0,0,0,.63,2.026,9.071,9.071,0,0,0,.471-2.008c.036-6.817.017-13.634.03-20.451,0-1.858.875-3.059,2.367-3.372,1.918-.4,3.54,1.031,3.548,3.233.025,6.266.01,12.532.01,18.8,0,.9-.056,1.809.025,2.7a4.218,4.218,0,0,0,.524,1.213c.2-.4.573-.793.579-1.193.047-3.458.027-6.917.029-10.376,0-2.707-.038-5.415.031-8.12a2.8,2.8,0,0,1,2.919-2.8,2.758,2.758,0,0,1,2.89,2.822C2249.689,492.3,2249.669,500.769,2249.669,509.383Z" transform="translate(-2213.05 -470.98)" fill="#fff" stroke="#8c2a6d" stroke-width="1"/>
  </g>
</svg>
