<svg xmlns="http://www.w3.org/2000/svg" xmlns:xlink="http://www.w3.org/1999/xlink" width="65.218" height="65.218" viewBox="0 0 65.218 65.218">
  <defs>
    <filter id="Icon_awesome-plus" x="0" y="0" width="65.218" height="65.218" filterUnits="userSpaceOnUse">
      <feOffset dy="3" input="SourceAlpha"/>
      <feGaussianBlur stdDeviation="3" result="blur"/>
      <feFlood flood-color="#842469"/>
      <feComposite operator="in" in2="blur"/>
      <feComposite in="SourceGraphic"/>
    </filter>
  </defs>
  <g id="Icon_awesome-plus-2" data-name="Icon awesome-plus" transform="translate(11.828 8.828)">
    <g transform="matrix(1, 0, 0, 1, -11.83, -8.83)" filter="url(#Icon_awesome-plus)">
      <g id="Icon_awesome-plus-3" data-name="Icon awesome-plus" transform="translate(34.2 7.24) rotate(45)" fill="#fff">
        <path d="M 15.74371910095215 32.63827896118164 L 13.64455986022949 32.63827896118164 C 11.93567943572998 32.63827896118164 10.54539966583252 31.24799919128418 10.54539966583252 29.53911972045898 L 10.54539966583252 21.09288024902344 L 2.099159479141235 21.09288024902344 C 0.3902794718742371 21.09288024902344 -1.000000476837158 19.70259857177734 -1.000000476837158 17.99371910095215 L -1.000000476837158 15.89455986022949 C -1.000000476837158 14.18567943572998 0.3902794718742371 12.79539966583252 2.099159479141235 12.79539966583252 L 10.54539966583252 12.79539966583252 L 10.54539966583252 4.349159717559814 C 10.54539966583252 2.640279531478882 11.93567943572998 1.249999523162842 13.64455986022949 1.249999523162842 L 15.74371910095215 1.249999523162842 C 17.45259857177734 1.249999523162842 18.84288024902344 2.640279531478882 18.84288024902344 4.349159717559814 L 18.84288024902344 12.79539966583252 L 27.28911972045898 12.79539966583252 C 28.99799919128418 12.79539966583252 30.38827896118164 14.18567943572998 30.38827896118164 15.89455986022949 L 30.38827896118164 17.99371910095215 C 30.38827896118164 19.70259857177734 28.99799919128418 21.09288024902344 27.28911972045898 21.09288024902344 L 18.84288024902344 21.09288024902344 L 18.84288024902344 29.53911972045898 C 18.84288024902344 31.24799919128418 17.45259857177734 32.63827896118164 15.74371910095215 32.63827896118164 Z" stroke="none"/>
        <path d="M 13.64455986022949 2.25 C 12.48542976379395 2.25 11.5453987121582 3.190029144287109 11.5453987121582 4.349159240722656 L 11.5453987121582 13.7953987121582 L 2.099159240722656 13.7953987121582 C 0.9400291442871094 13.7953987121582 0 14.73542976379395 0 15.89455986022949 L 0 17.99371910095215 C 0 19.15285873413086 0.9400291442871094 20.09288024902344 2.099159240722656 20.09288024902344 L 11.5453987121582 20.09288024902344 L 11.5453987121582 29.53911972045898 C 11.5453987121582 30.69824981689453 12.48542976379395 31.63827896118164 13.64455986022949 31.63827896118164 L 15.74371910095215 31.63827896118164 C 16.9028491973877 31.63827896118164 17.84288024902344 30.69824981689453 17.84288024902344 29.53911972045898 L 17.84288024902344 20.09288024902344 L 27.28911972045898 20.09288024902344 C 28.44824981689453 20.09288024902344 29.38827896118164 19.15285873413086 29.38827896118164 17.99371910095215 L 29.38827896118164 15.89455986022949 C 29.38827896118164 14.73542976379395 28.44824981689453 13.7953987121582 27.28911972045898 13.7953987121582 L 17.84288024902344 13.7953987121582 L 17.84288024902344 4.349159240722656 C 17.84288024902344 3.190029144287109 16.9028491973877 2.25 15.74371910095215 2.25 L 13.64455986022949 2.25 M 13.64455986022949 0.25 L 15.74371910095215 0.25 C 18.00399971008301 0.25 19.84288024902344 2.088878631591797 19.84288024902344 4.349159240722656 L 19.84288024902344 11.7953987121582 L 27.28911972045898 11.7953987121582 C 29.54940032958984 11.7953987121582 31.38827896118164 13.63427925109863 31.38827896118164 15.89455986022949 L 31.38827896118164 17.99371910095215 C 31.38827896118164 20.25399971008301 29.54940032958984 22.09288024902344 27.28911972045898 22.09288024902344 L 19.84288024902344 22.09288024902344 L 19.84288024902344 29.53911972045898 C 19.84288024902344 31.79940032958984 18.00399971008301 33.63827896118164 15.74371910095215 33.63827896118164 L 13.64455986022949 33.63827896118164 C 11.38427925109863 33.63827896118164 9.545398712158203 31.79940032958984 9.545398712158203 29.53911972045898 L 9.545398712158203 22.09288024902344 L 2.099159240722656 22.09288024902344 C -0.1611213684082031 22.09288024902344 -2 20.25399971008301 -2 17.99371910095215 L -2 15.89455986022949 C -2 13.63427925109863 -0.1611213684082031 11.7953987121582 2.099159240722656 11.7953987121582 L 9.545398712158203 11.7953987121582 L 9.545398712158203 4.349159240722656 C 9.545398712158203 2.088878631591797 11.38427925109863 0.25 13.64455986022949 0.25 Z" stroke="none" fill="#842469"/>
      </g>
    </g>
  </g>
</svg>
