<svg xmlns="http://www.w3.org/2000/svg" xmlns:xlink="http://www.w3.org/1999/xlink" width="58.846" height="58.26" viewBox="0 0 58.846 58.26">
  <defs>
    <filter id="Path_5426" x="0" y="6.798" width="58.846" height="51.462" filterUnits="userSpaceOnUse">
      <feOffset dy="3" input="SourceAlpha"/>
      <feGaussianBlur stdDeviation="3" result="blur"/>
      <feFlood flood-color="#832369"/>
      <feComposite operator="in" in2="blur"/>
      <feComposite in="SourceGraphic"/>
    </filter>
  </defs>
  <g id="Group_1215" data-name="Group 1215" transform="translate(9.495 0.5)">
    <g transform="matrix(1, 0, 0, 1, -9.49, -0.5)" filter="url(#Path_5426)">
      <path id="Path_5426-2" data-name="Path 5426" d="M2081.482,803.111c3.242,3.3,5.715,3.328,8.447.668,1.677.662,3.186,1.712,4.7,1.725,1.456.013,2.922-1.05,4.607-1.731a4.892,4.892,0,0,0,6.349,1.236.889.889,0,0,1,.5-.117c2.159.362,4.314.741,6.592,1.137v1.219c-5.188.678-9.911,2.15-12.483,7.16l.3.423a8.937,8.937,0,0,0,.88-.787,14.627,14.627,0,0,1,11.11-5.225c2.233-.057,1.515-1.573,1.641-2.722.131-1.2-.235-1.907-1.633-1.811a31,31,0,0,1-3.691,0,3.321,3.321,0,0,1-.155-6.635c2.751-.109,5.514-.123,8.263.008a4.434,4.434,0,0,1,4.354,4.1c.053,4.262.324,8.634-.47,12.773-1.923,10.021-11.441,16.47-21.851,15.363a19.945,19.945,0,0,1-17.454-19.6C2081.468,808.015,2081.482,805.746,2081.482,803.111Z" transform="translate(-2071.98 -784.26)" fill="#fff" stroke="#8c2a6d" stroke-width="1"/>
    </g>
    <path id="Path_5427" data-name="Path 5427" d="M2108.5,770.839c0-1.935-.028-3.87.007-5.8.042-2.283,1.435-3.784,3.489-3.834a3.553,3.553,0,0,1,3.719,3.8q.091,5.98-.009,11.961a3.521,3.521,0,0,1-3.588,3.74c-2.149,0-3.576-1.506-3.611-3.88C2108.478,774.827,2108.5,772.833,2108.5,770.839Z" transform="translate(-2098.985 -761.195)" fill="#fff" stroke="#8c2a6d" stroke-width="1"/>
    <path id="Path_5428" data-name="Path 5428" d="M2138.147,780.14c-2.657,1.268-5.269-.065-5.358-2.885-.134-4.211-.1-8.432,0-12.645a3.591,3.591,0,0,1,7.177.079c.08,2.515.047,5.035.008,7.552a1.716,1.716,0,0,1-.466,1.2C2137.119,775.3,2136.891,777.573,2138.147,780.14Z" transform="translate(-2114.676 -761.188)" fill="#fff" stroke="#8c2a6d" stroke-width="1"/>
    <path id="Path_5429" data-name="Path 5429" d="M2091.287,776.173c0,1.639.032,3.279-.009,4.918a3.507,3.507,0,0,1-3.424,3.7,3.465,3.465,0,0,1-3.737-3.549q-.111-5.091.008-10.185a3.474,3.474,0,0,1,3.582-3.544,3.575,3.575,0,0,1,3.578,3.745c0,.117,0,.234,0,.351Q2091.289,773.89,2091.287,776.173Z" transform="translate(-2083.153 -765.286)" fill="#fff" stroke="#8c2a6d" stroke-width="1"/>
    <path id="Path_5430" data-name="Path 5430" d="M2164.5,776.7h-7.129c0-2.092-.1-4.13.031-6.152a3.4,3.4,0,0,1,3.509-3.029,3.529,3.529,0,0,1,3.564,3.2,9.574,9.574,0,0,1,.024,1.053C2164.506,773.344,2164.5,774.917,2164.5,776.7Z" transform="translate(-2130.644 -765.293)" fill="#fff" stroke="#8c2a6d" stroke-width="1"/>
  </g>
</svg>
