<svg xmlns="http://www.w3.org/2000/svg" xmlns:xlink="http://www.w3.org/1999/xlink" width="36.32" height="35.535" viewBox="0 0 36.32 35.535">
  <defs>
    <linearGradient id="linear-gradient" x1="0.5" x2="0.5" y2="1" gradientUnits="objectBoundingBox">
      <stop offset="0" stop-color="#fcf738"/>
      <stop offset="1" stop-color="#fab42b"/>
    </linearGradient>
    <filter id="Icon_awesome-star" x="0" y="0" width="36.32" height="35.535" filterUnits="userSpaceOnUse">
      <feOffset dy="3" input="SourceAlpha"/>
      <feGaussianBlur stdDeviation="3" result="blur"/>
      <feFlood flood-opacity="0.161"/>
      <feComposite operator="in" in2="blur"/>
      <feComposite in="SourceGraphic"/>
    </filter>
  </defs>
  <g transform="matrix(1, 0, 0, 1, 0, 0)" filter="url(#Icon_awesome-star)">
    <path id="Icon_awesome-star-2" data-name="Icon awesome-star" d="M9.619.609,7.383,5.143l-5,.729a1.1,1.1,0,0,0-.606,1.87l3.62,3.527-.856,4.982a1.1,1.1,0,0,0,1.589,1.154L10.6,15.053l4.476,2.353a1.1,1.1,0,0,0,1.589-1.154l-.856-4.982,3.62-3.527a1.1,1.1,0,0,0-.606-1.87l-5-.729L11.584.609A1.1,1.1,0,0,0,9.619.609Z" transform="translate(7.56 6)" fill="url(#linear-gradient)"/>
  </g>
</svg>
