<svg xmlns="http://www.w3.org/2000/svg" xmlns:xlink="http://www.w3.org/1999/xlink" width="54.038" height="72.952" viewBox="0 0 54.038 72.952">
  <defs>
    <filter id="Path_5423" x="0" y="0" width="54.038" height="72.952" filterUnits="userSpaceOnUse">
      <feOffset dy="3" input="SourceAlpha"/>
      <feGaussianBlur stdDeviation="3" result="blur"/>
      <feFlood flood-color="#842469"/>
      <feComposite operator="in" in2="blur"/>
      <feComposite in="SourceGraphic"/>
    </filter>
  </defs>
  <g id="Group_1214" data-name="Group 1214" transform="translate(9.498 6.5)">
    <g transform="matrix(1, 0, 0, 1, -9.5, -6.5)" filter="url(#Path_5423)">
      <path id="Path_5423-2" data-name="Path 5423" d="M2398.007,745.441a12.2,12.2,0,0,0,.666-1.565q2.2-8.026,4.346-16.064a3.332,3.332,0,0,1,2.561-2.769,3.123,3.123,0,0,1,3.63,4.075c-1.363,5.218-2.787,10.419-4.188,15.627-.186.69-.392,1.374-.619,2.171-1.671,0-3.31-.013-4.949,0-2.6.025-4.462,1.722-4.5,4.075a4.2,4.2,0,0,0,4.406,4.175c.97.026,1.942,0,2.921,0,.45,1.143.086,1.5-1.027,1.594a12.645,12.645,0,0,0-8.006,3.553,18.36,18.36,0,0,0-1.9,2.63l.345.266a2.883,2.883,0,0,0,.535-.409,12.859,12.859,0,0,1,9.908-4.895c2.192-.074,1.338-1.565,1.494-2.614.2-1.332-.676-1.356-1.632-1.322-.975.034-1.955.044-2.929,0a2.9,2.9,0,0,1-2.918-2.956,2.849,2.849,0,0,1,2.969-2.879c2.261-.042,4.525-.054,6.784.006a4.01,4.01,0,0,1,4.071,3.676,57.912,57.912,0,0,1-.191,9.844,17.318,17.318,0,0,1-18.448,14.826,17.515,17.515,0,0,1-16.279-17.083c-.062-2.086-.01-4.176-.01-6.394,3.023,2.781,5.181,2.8,7.639.207.084.017.209,0,.255.057,1.411,1.65,3.146,2.359,5.22,1.519,2.142-.867,2.776-2.656,2.765-4.864-.04-7.916-.017-15.832,0-23.748,0-2.138,1.161-3.506,2.984-3.6a3.136,3.136,0,0,1,3.3,3.433c.038,5.86.015,11.72.034,17.579a15.9,15.9,0,0,0,.19,1.731Z" transform="translate(-2365.53 -716.08)" fill="#fff" stroke="#842469" stroke-width="1"/>
    </g>
    <path id="Path_5424" data-name="Path 5424" d="M2408.4,777.25c0,1.743.021,3.485-.006,5.227a3.182,3.182,0,0,1-3.067,3.357,3.129,3.129,0,0,1-3.216-3.208q-.088-5.379,0-10.76a3.11,3.11,0,0,1,3.216-3.2,3.158,3.158,0,0,1,3.063,3.355C2408.427,773.766,2408.4,775.508,2408.4,777.25Z" transform="translate(-2393.729 -754.45)" fill="#fff" stroke="#842469" stroke-width="1"/>
    <path id="Path_5425" data-name="Path 5425" d="M2377.681,782.457c0-1.387-.043-2.775.011-4.16a3.162,3.162,0,1,1,6.324-.045c.066,2.926.063,5.856.009,8.782a3.166,3.166,0,1,1-6.332.045C2377.634,785.541,2377.681,784,2377.681,782.457Z" transform="translate(-2376.852 -758.885)" fill="#fff" stroke="#842469" stroke-width="1"/>
  </g>
</svg>
