<svg xmlns="http://www.w3.org/2000/svg" xmlns:xlink="http://www.w3.org/1999/xlink" width="39.297" height="38.76" viewBox="0 0 39.297 38.76">
  <defs>
    <filter id="Path_5517" x="0.552" y="0" width="38.746" height="38.76" filterUnits="userSpaceOnUse">
      <feOffset dy="3" input="SourceAlpha"/>
      <feGaussianBlur stdDeviation="3" result="blur"/>
      <feFlood flood-opacity="0.161"/>
      <feComposite operator="in" in2="blur"/>
      <feComposite in="SourceGraphic"/>
    </filter>
  </defs>
  <g id="Group_1193" data-name="Group 1193" transform="translate(3401.257 824.758)">
    <g transform="matrix(1, 0, 0, 1, -3401.26, -824.76)" filter="url(#Path_5517)">
      <path id="Path_5517-2" data-name="Path 5517" d="M-3219.377-817.575c-.1.61-.2,1.218-.293,1.829-.323,2.242-.63,4.487-.972,6.725a1.229,1.229,0,0,1-.408.684q-4.214,3.535-8.452,7.04l-3.707,3.081-.264.217-2.757-2.757a1.069,1.069,0,0,0,.258-.156q3.884-3.875,7.754-7.763a1.471,1.471,0,0,0,.378-.7.754.754,0,0,0-.464-.843.839.839,0,0,0-.944.1,3.243,3.243,0,0,0-.28.262q-3.839,3.836-7.675,7.675a2.455,2.455,0,0,0-.195.242l-2.724-2.727c.1-.127.254-.318.41-.505q4.942-5.947,9.884-11.9a1.233,1.233,0,0,1,.829-.45q4.169-.585,8.336-1.188a.393.393,0,0,0,.1-.048h.473a1.2,1.2,0,0,1,.71.71Z" transform="translate(3249.67 824.76)" fill="#fff"/>
    </g>
    <path id="Path_5518" data-name="Path 5518" d="M-3306.732-550.517a2.759,2.759,0,0,1-.752,1.869.876.876,0,0,1-1.2.091,2.129,2.129,0,0,1-.2-.18q-3.648-3.647-7.294-7.294c-.439-.439-.52-.977-.137-1.325a3.188,3.188,0,0,1,1.006-.644,2.541,2.541,0,0,1,2.821.647c1.655,1.633,3.293,3.284,4.935,4.93A2.7,2.7,0,0,1-3306.732-550.517Z" transform="translate(-79.678 -245.129)" fill="#fff"/>
    <path id="Path_5519" data-name="Path 5519" d="M-3397.841-399.217a9.037,9.037,0,0,1-1.4-.143,2.6,2.6,0,0,1-2-2.571c-.013-.493-.013-.986,0-1.479a1.533,1.533,0,0,1,.978-1.458,1.476,1.476,0,0,1,1.7.272q1.354,1.3,2.656,2.656a1.476,1.476,0,0,1,.27,1.7,1.544,1.544,0,0,1-1.459.977c-.246.01-.493,0-.74,0Z" transform="translate(0 -389.212)" fill="#fff"/>
    <path id="Path_5520" data-name="Path 5520" d="M-3329.868-454.485l-2.447-2.453,2.456-2.456,2.449,2.464Z" transform="translate(-64.855 -338.062)" fill="#fff"/>
  </g>
</svg>
