<svg xmlns="http://www.w3.org/2000/svg" xmlns:xlink="http://www.w3.org/1999/xlink" width="219.02" height="70.61" viewBox="0 0 219.02 70.61">
  <defs>
    <linearGradient id="linear-gradient" x1="0.5" x2="0.5" y2="1" gradientUnits="objectBoundingBox">
      <stop offset="0.087" stop-color="#f56f56"/>
      <stop offset="0.224" stop-color="#f26b65"/>
      <stop offset="0.491" stop-color="#eb618e"/>
      <stop offset="0.859" stop-color="#e151d0"/>
      <stop offset="1" stop-color="#dd4bec"/>
    </linearGradient>
    <radialGradient id="radial-gradient" cx="0.5" cy="0.5" r="0.5" gradientUnits="objectBoundingBox">
      <stop offset="0" stop-color="#ffffef" stop-opacity="0.78"/>
      <stop offset="0.211" stop-color="#ffffa2" stop-opacity="0.412"/>
      <stop offset="0.495" stop-color="#fefee6" stop-opacity="0.141"/>
      <stop offset="0.764" stop-color="#fefef5" stop-opacity="0"/>
      <stop offset="1" stop-color="#fefefe" stop-opacity="0"/>
    </radialGradient>
    <radialGradient id="radial-gradient-2" cx="0.5" cy="0.5" r="0.5" gradientTransform="matrix(-0.707, 0.707, 0.707, 0.707, 0.5, -0.207)" gradientUnits="objectBoundingBox">
      <stop offset="0" stop-color="#ffff90"/>
      <stop offset="0.028" stop-color="#f4ed7e"/>
      <stop offset="0.102" stop-color="#dbc353"/>
      <stop offset="0.159" stop-color="#cba938"/>
      <stop offset="0.194" stop-color="#c6a02f"/>
      <stop offset="0.336" stop-color="#896000"/>
      <stop offset="0.366" stop-color="#7e5800"/>
      <stop offset="0.513" stop-color="#513900"/>
      <stop offset="0.654" stop-color="#2e2000"/>
      <stop offset="0.785" stop-color="#140e00"/>
      <stop offset="0.905" stop-color="#050300"/>
      <stop offset="1"/>
    </radialGradient>
    <radialGradient id="radial-gradient-3" cx="0.5" cy="0.5" r="0.5" gradientTransform="translate(0.5 1.207) rotate(-135)" xlink:href="#radial-gradient-2"/>
    <radialGradient id="radial-gradient-4" cx="0.5" cy="0.5" r="0.5" gradientUnits="objectBoundingBox">
      <stop offset="0" stop-color="#fafae0" stop-opacity="0.91"/>
      <stop offset="0.193" stop-color="#fcfcc9" stop-opacity="0.51"/>
      <stop offset="0.378" stop-color="#fafad1" stop-opacity="0.349"/>
      <stop offset="0.517" stop-color="#ffffc9" stop-opacity="0.212"/>
      <stop offset="0.673" stop-color="#ffffda" stop-opacity="0.102"/>
      <stop offset="1" stop-color="#fff" stop-opacity="0"/>
    </radialGradient>
    <filter id="Path_5591" x="18.719" y="0.023" width="51.871" height="51.822" filterUnits="userSpaceOnUse">
      <feOffset dy="3" input="SourceAlpha"/>
      <feGaussianBlur stdDeviation="3" result="blur"/>
      <feFlood flood-opacity="0.161"/>
      <feComposite operator="in" in2="blur"/>
      <feComposite in="SourceGraphic"/>
    </filter>
    <filter id="Path_5592" x="0" y="0.023" width="42.271" height="42.663" filterUnits="userSpaceOnUse">
      <feOffset dy="3" input="SourceAlpha"/>
      <feGaussianBlur stdDeviation="3" result="blur-2"/>
      <feFlood flood-opacity="0.161"/>
      <feComposite operator="in" in2="blur-2"/>
      <feComposite in="SourceGraphic"/>
    </filter>
    <filter id="Path_5593" x="0" y="43.387" width="27.231" height="27.195" filterUnits="userSpaceOnUse">
      <feOffset dy="3" input="SourceAlpha"/>
      <feGaussianBlur stdDeviation="3" result="blur-3"/>
      <feFlood flood-opacity="0.161"/>
      <feComposite operator="in" in2="blur-3"/>
      <feComposite in="SourceGraphic"/>
    </filter>
    <filter id="Path_5594" x="43.349" y="43.372" width="27.237" height="27.238" filterUnits="userSpaceOnUse">
      <feOffset dy="3" input="SourceAlpha"/>
      <feGaussianBlur stdDeviation="3" result="blur-4"/>
      <feFlood flood-opacity="0.161"/>
      <feComposite operator="in" in2="blur-4"/>
      <feComposite in="SourceGraphic"/>
    </filter>
    <filter id="Path_5595" x="12.366" y="29.531" width="28.747" height="28.735" filterUnits="userSpaceOnUse">
      <feOffset dy="3" input="SourceAlpha"/>
      <feGaussianBlur stdDeviation="3" result="blur-5"/>
      <feFlood flood-opacity="0.161"/>
      <feComposite operator="in" in2="blur-5"/>
      <feComposite in="SourceGraphic"/>
    </filter>
    <filter id="Path_5596" x="29.484" y="29.469" width="28.76" height="28.756" filterUnits="userSpaceOnUse">
      <feOffset dy="3" input="SourceAlpha"/>
      <feGaussianBlur stdDeviation="3" result="blur-6"/>
      <feFlood flood-opacity="0.161"/>
      <feComposite operator="in" in2="blur-6"/>
      <feComposite in="SourceGraphic"/>
    </filter>
    <filter id="Path_5597" x="7.578" y="38.273" width="24.777" height="24.793" filterUnits="userSpaceOnUse">
      <feOffset dy="3" input="SourceAlpha"/>
      <feGaussianBlur stdDeviation="3" result="blur-7"/>
      <feFlood flood-opacity="0.161"/>
      <feComposite operator="in" in2="blur-7"/>
      <feComposite in="SourceGraphic"/>
    </filter>
    <filter id="Path_5598" x="38.241" y="38.224" width="24.785" height="24.779" filterUnits="userSpaceOnUse">
      <feOffset dy="3" input="SourceAlpha"/>
      <feGaussianBlur stdDeviation="3" result="blur-8"/>
      <feFlood flood-opacity="0.161"/>
      <feComposite operator="in" in2="blur-8"/>
      <feComposite in="SourceGraphic"/>
    </filter>
  </defs>
  <g id="Component_5_1" data-name="Component 5 – 1" transform="translate(9)">
    <g id="Group_1189" data-name="Group 1189" transform="translate(2982.646 -130.302)">
      <path id="Path_5412-2" data-name="Path 5412-2" d="M-2949.352,151.951l12.152-13.371h135.409l20.406,23.083-20.406,23.993H-2937.2l-12.152-13.052Z" transform="translate(0 0.5)" stroke="#f2be3e" stroke-width="1" fill="url(#linear-gradient)"/>
      <path id="Path_5513" data-name="Path 5513" d="M622.918,190.493l7.195,7.46a1.591,1.591,0,0,1,0,2.208l-7.195,7.46" transform="translate(-3441.292 -37.413)" fill="none" stroke="#fff" stroke-linecap="round" stroke-miterlimit="10" stroke-width="1.236"/>
      <path id="Path_5514" data-name="Path 5514" d="M631.571,190.493l7.194,7.46a1.591,1.591,0,0,1,0,2.208l-7.194,7.46" transform="translate(-3441.292 -37.413)" fill="none" stroke="#fff" stroke-linecap="round" stroke-miterlimit="10" stroke-width="1.236"/>
    </g>
    <ellipse id="Ellipse_467" data-name="Ellipse 467" cx="9.139" cy="66.538" rx="9.139" ry="66.538" transform="translate(201.262 46) rotate(90)" fill="url(#radial-gradient)"/>
    <ellipse id="Ellipse_479" data-name="Ellipse 479" cx="3.187" cy="15.939" rx="3.187" ry="15.939" transform="matrix(0.755, 0.656, -0.656, 0.755, 205.209, 22.409)" fill="url(#radial-gradient-2)" style="mix-blend-mode: screen;isolation: isolate"/>
    <ellipse id="Ellipse_480" data-name="Ellipse 480" cx="3.187" cy="15.939" rx="3.187" ry="15.939" transform="translate(184.295 16.941) rotate(-41)" fill="url(#radial-gradient-3)" style="mix-blend-mode: screen;isolation: isolate"/>
    <ellipse id="Ellipse_468" data-name="Ellipse 468" cx="9.139" cy="63.369" rx="9.139" ry="63.369" transform="translate(160.033) rotate(90)" fill="url(#radial-gradient-4)"/>
    <g id="Group_1306" data-name="Group 1306" transform="translate(-55 210.023)">
      <g transform="matrix(1, 0, 0, 1, 46, -210.02)" filter="url(#Path_5591)">
        <path id="Path_5591-2" data-name="Path 5591" d="M112.672-204c-.886,3.583-1.783,7.164-2.648,10.753a1.944,1.944,0,0,1-.692,1.078Q96.669-181.341,84.016-170.5c-.143.123-.289.241-.387.322L78.8-175.011c.065-.079.2-.249.34-.414q10.851-12.778,21.711-25.55a1.5,1.5,0,0,1,.749-.458c3.526-.833,7.058-1.642,10.587-2.46a2.079,2.079,0,0,0,.279-.107Z" transform="translate(-51.08 210.02)" fill="#f3bf2b"/>
      </g>
      <g transform="matrix(1, 0, 0, 1, 46, -210.02)" filter="url(#Path_5592)">
        <path id="Path_5592-2" data-name="Path 5592" d="M55.205-204c1.409.341,2.815.691,4.226,1.021,2.246.525,4.5,1.031,6.743,1.558a1.02,1.02,0,0,1,.517.285c4.184,4.911,8.359,9.831,12.579,14.8l-5.931,7c-.4-.337-.786-.662-1.169-.99q-6.98-5.98-13.95-11.97a1.814,1.814,0,0,1-.533-.875c-.875-3.445-1.72-6.9-2.576-10.347a2.06,2.06,0,0,0-.112-.275Z" transform="translate(-46 210.02)" fill="#f3bf2b"/>
      </g>
      <g transform="matrix(1, 0, 0, 1, 46, -210.02)" filter="url(#Path_5593)">
        <path id="Path_5593-2" data-name="Path 5593" d="M55-144.771a5.611,5.611,0,0,1,1.155-2.525,4.674,4.674,0,0,1,5.282-1.2,4.619,4.619,0,0,1,2.757,4.753,4.588,4.588,0,0,1-3.736,4.02,4.574,4.574,0,0,1-5.04-2.655A10.27,10.27,0,0,1,55-143.744Z" transform="translate(-46 198.25)" fill="#f3bf2b"/>
      </g>
      <g transform="matrix(1, 0, 0, 1, 46, -210.02)" filter="url(#Path_5594)">
        <path id="Path_5594-2" data-name="Path 5594" d="M114.662-139.645a4.652,4.652,0,0,1-4.541-4.68,4.65,4.65,0,0,1,4.719-4.553,4.645,4.645,0,0,1,4.514,4.7A4.648,4.648,0,0,1,114.662-139.645Z" transform="translate(-57.77 198.25)" fill="#f3bf2b"/>
      </g>
      <g transform="matrix(1, 0, 0, 1, 46, -210.02)" filter="url(#Path_5595)">
        <path id="Path_5595-2" data-name="Path 5595" d="M79.386-155.836l-2.092-2.135-2.072,2.226-4.386-4.414,2.056-2.03-2.168-2.11,2.2-2.182,8.549,8.549Z" transform="translate(-49.36 202.01)" fill="#f3bf2b"/>
      </g>
      <g transform="matrix(1, 0, 0, 1, 46, -210.02)" filter="url(#Path_5596)">
        <path id="Path_5596-2" data-name="Path 5596" d="M98.837-155.864l-2.048-2.089L94.665-155.8l-2.175-2.177,8.58-8.58,2.056,2.058-2.152,2.129,2.276,2.113Z" transform="translate(-54.01 202.03)" fill="#f3bf2b"/>
      </g>
      <g transform="matrix(1, 0, 0, 1, 46, -210.02)" filter="url(#Path_5597)">
        <path id="Path_5597-2" data-name="Path 5597" d="M68.8-148.571a7.6,7.6,0,0,0-4.16-4.179l2.622-2.614,4.155,4.178Z" transform="translate(-48.06 199.64)" fill="#f3bf2b"/>
      </g>
      <g transform="matrix(1, 0, 0, 1, 46, -210.02)" filter="url(#Path_5598)">
        <path id="Path_5598-2" data-name="Path 5598" d="M103.624-151.29l4.136-4.137,2.649,2.65a7.59,7.59,0,0,0-4.145,4.128Z" transform="translate(-56.38 199.65)" fill="#f3bf2b"/>
      </g>
    </g>
  </g>
</svg>
