<svg xmlns="http://www.w3.org/2000/svg" xmlns:xlink="http://www.w3.org/1999/xlink" width="57" height="56" viewBox="0 0 57 56">
  <defs>
    <clipPath id="clip-path">
      <rect width="57" height="56" fill="none"/>
    </clipPath>
    <filter id="Icon_awesome-star" x="-7.034" y="-1" width="71.146" height="67.129" filterUnits="userSpaceOnUse">
      <feOffset dy="3" input="SourceAlpha"/>
      <feGaussianBlur stdDeviation="3" result="blur"/>
      <feFlood flood-opacity="0.161"/>
      <feComposite operator="in" in2="blur"/>
      <feComposite in="SourceGraphic"/>
    </filter>
  </defs>
  <g id="Repeat_Grid_24" data-name="Repeat Grid 24" clip-path="url(#clip-path)">
    <g transform="translate(-143.134 -512)">
      <g transform="matrix(1, 0, 0, 1, 143.13, 512)" filter="url(#Icon_awesome-star)">
        <path id="Icon_awesome-star-2" data-name="Icon awesome-star" d="M24.24,1.637,18.006,13.812,4.057,15.77a2.917,2.917,0,0,0-1.69,5.021l10.091,9.471L10.072,43.641a3.031,3.031,0,0,0,4.43,3.1L26.98,40.423,39.458,46.74a3.033,3.033,0,0,0,4.43-3.1L41.5,30.262l10.091-9.471A2.917,2.917,0,0,0,49.9,15.77L35.954,13.812,29.72,1.637a3.111,3.111,0,0,0-5.48,0Z" transform="translate(1.56 6)" fill="none" stroke="#cc8951" stroke-width="2"/>
      </g>
      <text id="_1" data-name="1" transform="translate(208.134 590)" fill="#fff" font-size="18" font-family="SegoeUI-Bold, Segoe UI" font-weight="700"><tspan x="-5.177" y="0">1</tspan></text>
    </g>
  </g>
</svg>
