<svg xmlns="http://www.w3.org/2000/svg" width="32.464" height="32.475" viewBox="0 0 32.464 32.475">
  <g id="Group_3240" data-name="Group 3240" transform="translate(-693.829 257.584)">
    <path id="Path_12897" data-name="Path 12897" d="M913.958,26.416c-.04.108-.078.217-.119.325a1.575,1.575,0,0,1-1.528,1.07q-4.99,0-9.98,0a1.515,1.515,0,0,1-1.565-1.181,3.554,3.554,0,0,1,1.47-3.912,11.123,11.123,0,0,1,3.14-1.311,8.788,8.788,0,0,1,6.111.816c.246.12.486.254.727.385a3.289,3.289,0,0,1,1.68,2.335,2.114,2.114,0,0,0,.064.205Z" transform="translate(-187.665 -252.921)" fill="#fff"/>
    <path id="Path_12898" data-name="Path 12898" d="M833.238-257.584a8.845,8.845,0,0,1,1.493.571,3.639,3.639,0,0,1,1.459,4.563,3.692,3.692,0,0,1-4.274,2.136,3.694,3.694,0,0,1-2.8-3.933,3.708,3.708,0,0,1,3.022-3.276,1.825,1.825,0,0,0,.209-.061Z" transform="translate(-122.738 0)" fill="#fff"/>
    <path id="Path_12899" data-name="Path 12899" d="M803.778-163.293H798.96a1.68,1.68,0,0,1-1.807-1.794,3.591,3.591,0,0,1,.438-2.077,3.676,3.676,0,0,1,1-1.12,9.446,9.446,0,0,1,5.4-1.65,9.567,9.567,0,0,1,5.077,1.669,3.208,3.208,0,0,1,1.381,2.687,4.323,4.323,0,0,1-.025.821,1.609,1.609,0,0,1-1.695,1.464C807.075-163.291,805.426-163.293,803.778-163.293Z" transform="translate(-93.746 -79.524)" fill="#fff"/>
    <path id="Path_12900" data-name="Path 12900" d="M700.445,27.806q-2.456,0-4.913,0a1.621,1.621,0,0,1-1.7-1.685,6.756,6.756,0,0,1,.195-1.654,2.99,2.99,0,0,1,1.5-1.843,10.622,10.622,0,0,1,4.131-1.415,9.075,9.075,0,0,1,4.961,1c.114.055.226.115.34.169a3.563,3.563,0,0,1,2.134,3.869,1.612,1.612,0,0,1-1.668,1.559Q702.933,27.809,700.445,27.806Z" transform="translate(0 -252.916)" fill="#fff"/>
    <path id="Path_12901" data-name="Path 12901" d="M733-62.811a3.709,3.709,0,0,1-3.686,3.7,3.7,3.7,0,0,1-3.691-3.655A3.7,3.7,0,0,1,729.27-66.5,3.708,3.708,0,0,1,733-62.811Z" transform="translate(-28.845 -173.375)" fill="#fff"/>
    <path id="Path_12902" data-name="Path 12902" d="M939.984-62.813A3.7,3.7,0,0,1,936.3-59.12a3.71,3.71,0,0,1-3.691-3.693,3.713,3.713,0,0,1,3.692-3.694A3.7,3.7,0,0,1,939.984-62.813Z" transform="translate(-216.648 -173.369)" fill="#fff"/>
    <path id="Path_12903" data-name="Path 12903" d="M826.317-79.673c0,.591.01,1.183-.005,1.774a.559.559,0,0,0,.239.506c1.028.81,2.047,1.633,3.072,2.448a.8.8,0,0,1,.372.755.738.738,0,0,1-1.235.445c-.764-.6-1.518-1.212-2.276-1.819-.214-.172-.442-.33-.639-.519s-.321-.179-.529-.008c-.962.791-1.937,1.567-2.915,2.339a.738.738,0,0,1-1.237-.4.771.771,0,0,1,.355-.789c1-.795,1.991-1.6,3-2.386a.73.73,0,0,0,.323-.657c-.019-1.193-.013-2.387-.005-3.58a.743.743,0,0,1,1.025-.778.755.755,0,0,1,.457.764C826.319-80.94,826.317-80.307,826.317-79.673Z" transform="translate(-115.519 -158.945)" fill="#fff"/>
  </g>
</svg>
