<svg xmlns="http://www.w3.org/2000/svg" xmlns:xlink="http://www.w3.org/1999/xlink" width="780.358" height="470.846" viewBox="0 0 780.358 470.846">
  <defs>
    <linearGradient id="linear-gradient" x1="0.5" x2="0.5" y2="1" gradientUnits="objectBoundingBox">
      <stop offset="0.087" stop-color="#f56f56"/>
      <stop offset="0.178" stop-color="#e96c5f" stop-opacity="0.937"/>
      <stop offset="0.355" stop-color="#ca6779" stop-opacity="0.769"/>
      <stop offset="0.601" stop-color="#995ea3" stop-opacity="0.494"/>
      <stop offset="0.904" stop-color="#5652db" stop-opacity="0.125"/>
      <stop offset="1" stop-color="#404eef" stop-opacity="0"/>
    </linearGradient>
    <radialGradient id="radial-gradient" cx="0.5" cy="0.5" r="13.713" gradientTransform="matrix(0.036, 0, 0, -0.036, 1.897, -218.656)" gradientUnits="objectBoundingBox">
      <stop offset="0" stop-color="#fff"/>
      <stop offset="0.017" stop-color="#f5e0d6"/>
      <stop offset="0.039" stop-color="#ebc0a9"/>
      <stop offset="0.06" stop-color="#e4a687"/>
      <stop offset="0.08" stop-color="#de946e"/>
      <stop offset="0.098" stop-color="#db885f"/>
      <stop offset="0.113" stop-color="#da855a"/>
      <stop offset="0.198" stop-color="#ad6947" stop-opacity="0.792"/>
      <stop offset="0.298" stop-color="#7f4d34" stop-opacity="0.584"/>
      <stop offset="0.402" stop-color="#583524" stop-opacity="0.404"/>
      <stop offset="0.508" stop-color="#382217" stop-opacity="0.259"/>
      <stop offset="0.619" stop-color="#1f130c" stop-opacity="0.145"/>
      <stop offset="0.733" stop-color="#0d0805" stop-opacity="0.063"/>
      <stop offset="0.856" stop-color="#030201" stop-opacity="0.016"/>
      <stop offset="1" stop-opacity="0"/>
    </radialGradient>
    <radialGradient id="radial-gradient-2" cx="0.5" cy="0.5" r="0.764" gradientTransform="matrix(1, 0, 0, -1, 0, 1)" xlink:href="#radial-gradient"/>
    <clipPath id="clip-path">
      <path id="Path_12906" data-name="Path 12906" d="M20,0H697c11.046,0,50,42.713,50,54.824V438.592c0,12.111-8.954,21.93-20,21.93H20c-11.046,0-20-9.818-20-21.93V21.93C0,9.818,8.954,0,20,0Z" transform="translate(573 178)" stroke="#f48757" stroke-width="2" fill="url(#linear-gradient)"/>
    </clipPath>
    <radialGradient id="radial-gradient-3" cx="-0.097" cy="0.514" r="13.68" gradientTransform="translate(-1.253 -7.148) rotate(90) scale(1 0.122)" gradientUnits="objectBoundingBox">
      <stop offset="0.178"/>
      <stop offset="1" stop-color="#fff"/>
    </radialGradient>
    <radialGradient id="radial-gradient-4" cx="-0.093" cy="-0.092" r="5.77" gradientTransform="translate(-1.356 -3.127) rotate(90) scale(1 0.294)" xlink:href="#radial-gradient-3"/>
    <radialGradient id="radial-gradient-5" cx="-0.088" cy="-0.105" r="3.325" gradientTransform="translate(-1.469 -1.699) rotate(90) scale(1 0.546)" xlink:href="#radial-gradient-3"/>
    <radialGradient id="radial-gradient-6" cx="-0.08" cy="-0.111" r="2.427" gradientTransform="translate(-1.688 -1.149) rotate(90) scale(1 0.855)" xlink:href="#radial-gradient-3"/>
    <radialGradient id="radial-gradient-7" cx="-0.067" cy="-0.113" r="1.995" gradientTransform="translate(-2.098 -0.84) rotate(90) scale(1 1.295)" xlink:href="#radial-gradient-3"/>
    <radialGradient id="radial-gradient-8" cx="-0.04" cy="-0.115" r="1.775" gradientTransform="translate(-2.967 -0.58) rotate(90) scale(1 2.077)" xlink:href="#radial-gradient-3"/>
    <radialGradient id="radial-gradient-9" cx="0.041" cy="-0.116" r="1.68" gradientTransform="translate(-5.624 -0.113) rotate(90) scale(1 4.224)" xlink:href="#radial-gradient-3"/>
    <radialGradient id="radial-gradient-10" cx="1.272" cy="-0.116" r="1.669" gradientTransform="translate(-9.672 -0.382) rotate(90) scale(1 8.21)" xlink:href="#radial-gradient-3"/>
    <radialGradient id="radial-gradient-11" cx="1.193" cy="-0.113" r="1.713" gradientTransform="translate(-2.683 -1.602) rotate(90) scale(1 2.846)" xlink:href="#radial-gradient-3"/>
    <radialGradient id="radial-gradient-12" cx="1.167" cy="-0.109" r="1.862" gradientTransform="translate(-1.225 -1.925) rotate(90) scale(1 1.631)" xlink:href="#radial-gradient-3"/>
    <radialGradient id="radial-gradient-13" cx="1.157" cy="-0.103" r="2.168" gradientTransform="translate(-0.627 -2.196) rotate(90) scale(1 1.059)" xlink:href="#radial-gradient-3"/>
    <radialGradient id="radial-gradient-14" cx="1.152" cy="-0.095" r="2.771" gradientTransform="translate(-0.32 -2.588) rotate(90) scale(1 0.696)" xlink:href="#radial-gradient-3"/>
    <radialGradient id="radial-gradient-15" cx="1.15" cy="-0.078" r="4.15" gradientTransform="translate(-0.154 -3.402) rotate(90) scale(1 0.42)" xlink:href="#radial-gradient-3"/>
    <radialGradient id="radial-gradient-16" cx="1.149" cy="-0.018" r="9.25" gradientTransform="translate(-0.073 -6.335) rotate(90) scale(1 0.181)" xlink:href="#radial-gradient-3"/>
    <radialGradient id="radial-gradient-17" cx="1.148" cy="1.147" r="9.691" gradientTransform="translate(0.127 -5.426) rotate(90) scale(1 0.172)" xlink:href="#radial-gradient-3"/>
    <radialGradient id="radial-gradient-18" cx="1.146" cy="1.134" r="4.231" gradientTransform="translate(0.344 -2.235) rotate(90) scale(1 0.411)" xlink:href="#radial-gradient-3"/>
    <radialGradient id="radial-gradient-19" cx="1.146" cy="1.131" r="2.802" gradientTransform="translate(0.52 -1.376) rotate(90) scale(1 0.685)" xlink:href="#radial-gradient-3"/>
    <radialGradient id="radial-gradient-20" cx="1.147" cy="1.129" r="2.183" gradientTransform="translate(0.664 -0.964) rotate(90) scale(1 1.043)" xlink:href="#radial-gradient-3"/>
    <radialGradient id="radial-gradient-21" cx="1.151" cy="1.129" r="1.87" gradientTransform="translate(0.774 -0.682) rotate(90) scale(1 1.604)" xlink:href="#radial-gradient-3"/>
    <radialGradient id="radial-gradient-22" cx="1.164" cy="1.129" r="1.716" gradientTransform="translate(0.823 -0.35) rotate(90) scale(1 2.777)" xlink:href="#radial-gradient-3"/>
    <radialGradient id="radial-gradient-23" cx="1.235" cy="1.129" r="1.669" gradientTransform="translate(0.533 0.849) rotate(90) scale(1 7.997)" xlink:href="#radial-gradient-3"/>
    <radialGradient id="radial-gradient-24" cx="0.004" cy="1.128" r="1.678" gradientTransform="translate(-0.419 1.205) rotate(90) scale(1 4.378)" xlink:href="#radial-gradient-3"/>
    <radialGradient id="radial-gradient-25" cx="-0.059" cy="1.125" r="1.77" gradientTransform="translate(-0.41 0.691) rotate(90) scale(1 2.118)" xlink:href="#radial-gradient-3"/>
    <radialGradient id="radial-gradient-26" cx="-0.079" cy="1.122" r="1.985" gradientTransform="translate(-0.506 0.418) rotate(90) scale(1 1.315)" xlink:href="#radial-gradient-3"/>
    <radialGradient id="radial-gradient-27" cx="-0.088" cy="1.119" r="2.406" gradientTransform="translate(-0.64 0.102) rotate(90) scale(1 0.868)" xlink:href="#radial-gradient-3"/>
    <radialGradient id="radial-gradient-28" cx="-0.093" cy="1.114" r="3.278" gradientTransform="translate(-0.802 -0.446) rotate(90) scale(1 0.556)" xlink:href="#radial-gradient-3"/>
    <radialGradient id="radial-gradient-29" cx="-0.096" cy="1.105" r="5.615" gradientTransform="translate(-0.999 -1.838) rotate(90) scale(1 0.302)" xlink:href="#radial-gradient-3"/>
  </defs>
  <g id="Group_3708" data-name="Group 3708" transform="translate(-570 -191.676)">
    <g id="Path_12904" data-name="Path 12904" transform="translate(582.826 202)" fill="#0c012c">
      <path d="M 727 459.5217590332031 L 20 459.5217590332031 C 17.4463996887207 459.5217590332031 14.96870040893555 458.97314453125 12.6358003616333 457.8912353515625 C 10.37539958953857 456.8428344726562 8.343500137329102 455.3401489257812 6.596700191497803 453.4248352050781 C 4.843900203704834 451.5029602050781 3.467200040817261 449.2633361816406 2.504699945449829 446.7682495117188 C 1.50629997253418 444.1798400878906 1 441.4290466308594 1 438.5921630859375 L 1 21.92964935302734 C 1 19.09274864196777 1.50629997253418 16.34184837341309 2.504699945449829 13.75354862213135 C 3.467200040817261 11.25844860076904 4.843900203704834 9.01884937286377 6.596700191497803 7.096949100494385 C 8.343500137329102 5.181649208068848 10.37539958953857 3.678949117660522 12.6358003616333 2.63054895401001 C 14.96870040893555 1.548648953437805 17.4463996887207 1.000048995018005 20 1.000048995018005 L 697 1.000048995018005 C 698.3447875976562 1.000048995018005 701.671875 1.862949013710022 708.844970703125 7.641849040985107 C 713.8414916992188 11.66714859008789 719.7219848632812 17.31474876403809 725.4033203125 23.54414939880371 C 731.0855102539062 29.77454948425293 736.2374267578125 36.22414779663086 739.9100952148438 41.70494842529297 C 743.8372192382812 47.56554794311523 746 52.22464752197266 746 54.82405090332031 L 746 438.5921630859375 C 746 441.4290466308594 745.4937133789062 444.1798400878906 744.4953002929688 446.7682495117188 C 743.5327758789062 449.2633361816406 742.1561279296875 451.5029602050781 740.4033203125 453.4248352050781 C 738.656494140625 455.3401489257812 736.6245727539062 456.8428344726562 734.3641967773438 457.8912353515625 C 732.0313110351562 458.97314453125 729.5535888671875 459.5217590332031 727 459.5217590332031 Z" stroke="none"/>
      <path d="M 20 1.99993896484375 C 15.22711181640625 1.99993896484375 10.7294921875 4.049346923828125 7.3355712890625 7.770660400390625 C 5.66680908203125 9.600555419921875 4.35528564453125 11.73455810546875 3.43768310546875 14.11334228515625 C 2.48370361328125 16.58645629882812 2 19.21615600585938 2 21.92953491210938 L 2 438.592041015625 C 2 441.3054504394531 2.48370361328125 443.9351501464844 3.43768310546875 446.4082641601562 C 4.35528564453125 448.7870483398438 5.66680908203125 450.9210510253906 7.3355712890625 452.7509460449219 C 10.7294921875 456.4722595214844 15.22711181640625 458.5216369628906 20 458.5216369628906 L 727 458.5216369628906 C 731.7728881835938 458.5216369628906 736.2705078125 456.4722595214844 739.6644287109375 452.7509460449219 C 741.3331909179688 450.9210510253906 742.6447143554688 448.7870483398438 743.5623168945312 446.4082641601562 C 744.5162963867188 443.9351501464844 745 441.3054504394531 745 438.592041015625 L 745 54.82394409179688 C 745 54.02163696289062 744.738525390625 52.5052490234375 743.4924926757812 49.83724975585938 C 742.4804077148438 47.67013549804688 740.99560546875 45.121337890625 739.0792846679688 42.26153564453125 C 735.4334716796875 36.82073974609375 730.314208984375 30.41275024414062 724.6644287109375 24.21795654296875 C 719.0164794921875 18.02505493164062 713.1755981445312 12.41473388671875 708.2177124023438 8.420440673828125 C 701.0247192382812 2.62554931640625 697.9766235351562 1.99993896484375 697 1.99993896484375 L 20 1.99993896484375 M 20 -6.103515625e-05 L 697 -6.103515625e-05 C 708.0457153320312 -6.103515625e-05 747 42.712646484375 747 54.82394409179688 L 747 438.592041015625 C 747 450.7034606933594 738.0457153320312 460.5216369628906 727 460.5216369628906 L 20 460.5216369628906 C 8.95428466796875 460.5216369628906 0 450.7034606933594 0 438.592041015625 L 0 21.92953491210938 C 0 9.818145751953125 8.95428466796875 -6.103515625e-05 20 -6.103515625e-05 Z" stroke="none" fill="#f48757"/>
    </g>
    <g id="Path_12905" data-name="Path 12905" transform="translate(584 202)" fill="url(#linear-gradient)">
      <path d="M 727 459.5217590332031 L 20 459.5217590332031 C 17.4463996887207 459.5217590332031 14.96870040893555 458.97314453125 12.6358003616333 457.8912353515625 C 10.37539958953857 456.8428344726562 8.343500137329102 455.3401489257812 6.596700191497803 453.4248352050781 C 4.843900203704834 451.5029602050781 3.467200040817261 449.2633361816406 2.504699945449829 446.7682495117188 C 1.50629997253418 444.1798400878906 1 441.4290466308594 1 438.5921630859375 L 1 21.92964935302734 C 1 19.09274864196777 1.50629997253418 16.34184837341309 2.504699945449829 13.75354862213135 C 3.467200040817261 11.25844860076904 4.843900203704834 9.01884937286377 6.596700191497803 7.096949100494385 C 8.343500137329102 5.181649208068848 10.37539958953857 3.678949117660522 12.6358003616333 2.63054895401001 C 14.96870040893555 1.548648953437805 17.4463996887207 1.000048995018005 20 1.000048995018005 L 697 1.000048995018005 C 698.3447875976562 1.000048995018005 701.671875 1.862949013710022 708.844970703125 7.641849040985107 C 713.8414916992188 11.66714859008789 719.7219848632812 17.31474876403809 725.4033203125 23.54414939880371 C 731.0855102539062 29.77454948425293 736.2374267578125 36.22414779663086 739.9100952148438 41.70494842529297 C 743.8372192382812 47.56554794311523 746 52.22464752197266 746 54.82405090332031 L 746 438.5921630859375 C 746 441.4290466308594 745.4937133789062 444.1798400878906 744.4953002929688 446.7682495117188 C 743.5327758789062 449.2633361816406 742.1561279296875 451.5029602050781 740.4033203125 453.4248352050781 C 738.656494140625 455.3401489257812 736.6245727539062 456.8428344726562 734.3641967773438 457.8912353515625 C 732.0313110351562 458.97314453125 729.5535888671875 459.5217590332031 727 459.5217590332031 Z" stroke="none"/>
      <path d="M 20 1.99993896484375 C 15.22711181640625 1.99993896484375 10.7294921875 4.049346923828125 7.3355712890625 7.770660400390625 C 5.66680908203125 9.600555419921875 4.35528564453125 11.73455810546875 3.43768310546875 14.11334228515625 C 2.48370361328125 16.58645629882812 2 19.21615600585938 2 21.92953491210938 L 2 438.592041015625 C 2 441.3054504394531 2.48370361328125 443.9351501464844 3.43768310546875 446.4082641601562 C 4.35528564453125 448.7870483398438 5.66680908203125 450.9210510253906 7.3355712890625 452.7509460449219 C 10.7294921875 456.4722595214844 15.22711181640625 458.5216369628906 20 458.5216369628906 L 727 458.5216369628906 C 731.7728881835938 458.5216369628906 736.2705078125 456.4722595214844 739.6644287109375 452.7509460449219 C 741.3331909179688 450.9210510253906 742.6447143554688 448.7870483398438 743.5623168945312 446.4082641601562 C 744.5162963867188 443.9351501464844 745 441.3054504394531 745 438.592041015625 L 745 54.82394409179688 C 745 54.02163696289062 744.738525390625 52.5052490234375 743.4924926757812 49.83724975585938 C 742.4804077148438 47.67013549804688 740.99560546875 45.121337890625 739.0792846679688 42.26153564453125 C 735.4334716796875 36.82073974609375 730.314208984375 30.41275024414062 724.6644287109375 24.21795654296875 C 719.0164794921875 18.02505493164062 713.1755981445312 12.41473388671875 708.2177124023438 8.420440673828125 C 701.0247192382812 2.62554931640625 697.9766235351562 1.99993896484375 697 1.99993896484375 L 20 1.99993896484375 M 20 -6.103515625e-05 L 697 -6.103515625e-05 C 708.0457153320312 -6.103515625e-05 747 42.712646484375 747 54.82394409179688 L 747 438.592041015625 C 747 450.7034606933594 738.0457153320312 460.5216369628906 727 460.5216369628906 L 20 460.5216369628906 C 8.95428466796875 460.5216369628906 0 450.7034606933594 0 438.592041015625 L 0 21.92953491210938 C 0 9.818145751953125 8.95428466796875 -6.103515625e-05 20 -6.103515625e-05 Z" stroke="none" fill="#f48757"/>
    </g>
    <g id="Group_2758" data-name="Group 2758" transform="translate(1221.889 191.414)">
      <g id="Group_1172" data-name="Group 1172" transform="translate(0 4.291)" style="isolation: isolate">
        <rect id="Rectangle_164" data-name="Rectangle 164" width="64.759" height="18.298" rx="3.115" fill="#cd894c" style="isolation: isolate"/>
        <rect id="Rectangle_165" data-name="Rectangle 165" width="62.557" height="18.298" rx="3.062" transform="translate(118.069 45.561) rotate(90)" fill="#cd894c" style="isolation: isolate"/>
        <path id="Path_5417" data-name="Path 5417" d="M-2880.956,526.891l-45.318-33.428a4.222,4.222,0,0,0-5.9.891l-5.849,7.928a4.224,4.224,0,0,0,.892,5.905l53.506,36.651c-6.312-1.837-3.667-2.237-2.282-4.113l5.848-7.928A4.222,4.222,0,0,0-2880.956,526.891Z" transform="translate(2989.861 -492.304)" fill="#cd894c" style="isolation: isolate"/>
        <path id="Path_5418" data-name="Path 5418" d="M-2895.195,517.9a24.793,24.793,0,0,1,9.165,15.125v4.684h-12.791V519.2Z" transform="translate(3004.099 -483.317)" fill="#bd256e" style="isolation: isolate"/>
      </g>
      <g id="Group_1173" data-name="Group 1173" transform="translate(0 0.872)">
        <path id="Union_3" data-name="Union 3" d="M102.834,108.118a3.062,3.062,0,0,1-3.063-3.062V50.409a3.116,3.116,0,0,1-.837-.44L56,18.3H3.116A3.115,3.115,0,0,1,0,15.183V3.116A3.116,3.116,0,0,1,3.116,0H60.034a3.122,3.122,0,0,1,1.63,0,3.116,3.116,0,0,1,2.81,1.811L109.8,35.244a3.115,3.115,0,0,1,.658,4.357l-4.4,5.96h8.949a3.062,3.062,0,0,1,3.062,3.062v56.434a3.062,3.062,0,0,1-3.062,3.062Z" transform="translate(0 0)" fill="#f3bf2b" stroke="rgba(0,0,0,0)" stroke-miterlimit="10" stroke-width="1"/>
        <path id="Path_5419" data-name="Path 5419" d="M-2895.195,515.382a24.8,24.8,0,0,1,9.165,15.125v4.685h-12.791v-18.51Z" transform="translate(3004.099 -480.796)" fill="#f3bf2b" style="isolation: isolate"/>
      </g>
    </g>
    <g id="Group_649" data-name="Group 649" transform="translate(1309.297 595.756) rotate(-90)">
      <ellipse id="Ellipse_377" data-name="Ellipse 377" cx="183.806" cy="3.097" rx="183.806" ry="3.097" transform="translate(0 17.433)" fill="url(#radial-gradient)" style="mix-blend-mode: screen;isolation: isolate"/>
      <ellipse id="Ellipse_378" data-name="Ellipse 378" cx="152.801" cy="20.53" rx="152.801" ry="20.53" transform="translate(31.004 0)" fill="url(#radial-gradient-2)" style="mix-blend-mode: screen;isolation: isolate"/>
    </g>
    <g id="Mask_Group_11" data-name="Mask Group 11" transform="translate(14 24)" opacity="0.2" clip-path="url(#clip-path)">
      <g id="Group_2220" data-name="Group 2220" transform="translate(484 -24)">
        <g id="Group_2219" data-name="Group 2219" opacity="0.65" style="mix-blend-mode: overlay;isolation: isolate">
          <path id="Path_7633" data-name="Path 7633" d="M912.223,812.189V791.6L469.175,812.189l443.048,20.594Z" transform="translate(11.674 -417.782)" fill="url(#radial-gradient-3)"/>
          <path id="Path_7634" data-name="Path 7634" d="M898.122,915.928l6.235-20.04L466.985,838.31l424.9,97.658Z" transform="translate(11.893 -431.998)" fill="url(#radial-gradient-4)"/>
          <path id="Path_7635" data-name="Path 7635" d="M857.7,1003.192l12.136-18.408L461.657,852.13,845.566,1021.6Z" transform="translate(12.425 -434.549)" fill="url(#radial-gradient-5)"/>
          <path id="Path_7636" data-name="Path 7636" d="M793.134,1080.658l17.383-15.787-357.041-200.6,322.275,232.172Z" transform="translate(13.242 -436.273)" fill="url(#radial-gradient-6)"/>
          <path id="Path_7637" data-name="Path 7637" d="M707.892,1144.161l21.7-12.318-286.7-257.754L686.2,1156.479Z" transform="translate(32.379 -433.639)" fill="url(#radial-gradient-7)"/>
          <path id="Path_7638" data-name="Path 7638" d="M606.558,1190.287,631.4,1182.1,430.449,881.048l151.267,317.424Z" transform="translate(40.353 -436.114)" fill="url(#radial-gradient-8)"/>
          <path id="Path_7639" data-name="Path 7639" d="M494.582,1216.555l26.653-3.613L416.84,884.777l51.089,335.391Z" transform="translate(47.713 -437.44)" fill="url(#radial-gradient-9)"/>
          <path id="Path_7640" data-name="Path 7640" d="M372.23,1221.552l27.031,1.153-2.225-337.631L345.2,1220.4Z" transform="translate(61.901 -437.546)" fill="url(#radial-gradient-10)"/>
          <path id="Path_7641" data-name="Path 7641" d="M246.167,1205.011l25.955,5.858L372.187,881.925,220.212,1199.154Z" transform="translate(80.011 -436.426)" fill="url(#radial-gradient-11)"/>
          <path id="Path_7642" data-name="Path 7642" d="M128.837,1167.821l23.484,10.247L349.3,875.5,105.354,1157.574Z" transform="translate(97.887 -434.14)" fill="url(#radial-gradient-12)"/>
          <path id="Path_7643" data-name="Path 7643" d="M26.551,1111.982l19.75,14.085L329.594,866.139,6.8,1097.9Z" transform="translate(128.994 -430.811)" fill="url(#radial-gradient-13)"/>
          <path id="Path_7644" data-name="Path 7644" d="M-55.192,1040.494l14.954,17.167,354.38-203.31L-70.146,1023.327Z" transform="translate(136.679 -434.147)" fill="url(#radial-gradient-14)"/>
          <path id="Path_7645" data-name="Path 7645" d="M-112,957.2l9.354,19.325,406.412-135.76-425.119,97.109Z" transform="translate(141.793 -431.822)" fill="url(#radial-gradient-15)"/>
          <path id="Path_7646" data-name="Path 7646" d="M-140.811,866.587l3.251,20.444,436.592-60.91-443.094,20.022Z" transform="translate(144.062 -428.812)" fill="url(#radial-gradient-16)"/>
          <path id="Path_7647" data-name="Path 7647" d="M-140.754,741.421l-3.027,20.464,443.3,17.214-437.244-58.142Z" transform="translate(144.034 -394.089)" fill="url(#radial-gradient-17)"/>
          <path id="Path_7648" data-name="Path 7648" d="M-111.881,609.48l-9.142,19.383,426.168,94.413L-102.739,590.1Z" transform="translate(141.761 -349.738)" fill="url(#radial-gradient-18)"/>
          <path id="Path_7649" data-name="Path 7649" d="M-55.021,488.909l-14.765,17.261L316.337,672.706-40.256,471.648Z" transform="translate(136.643 -310.104)" fill="url(#radial-gradient-19)"/>
          <path id="Path_7650" data-name="Path 7650" d="M26.767,386.193,7.173,400.4l325.318,229.7L46.362,371.983Z" transform="translate(128.957 -282.15)" fill="url(#radial-gradient-20)"/>
          <path id="Path_7651" data-name="Path 7651" d="M129.087,306.854l-23.371,10.4L352.738,597.77,152.457,296.459Z" transform="translate(97.732 -255.287)" fill="url(#radial-gradient-21)"/>
          <path id="Path_7652" data-name="Path 7652" d="M246.436,255.158l-25.89,6.022L375.989,577.434l-103.663-328.3Z" transform="translate(79.838 -238.456)" fill="url(#radial-gradient-22)"/>
          <path id="Path_7653" data-name="Path 7653" d="M372.505,233.884l-27.017,1.324,55.506,334.985L399.522,232.56Z" transform="translate(61.801 -232.56)" fill="url(#radial-gradient-23)"/>
          <path id="Path_7654" data-name="Path 7654" d="M495.254,240.373l-26.692-3.445-47.415,335.7,100.8-328.814Z" transform="translate(47.137 -234.114)" fill="url(#radial-gradient-24)"/>
          <path id="Path_7655" data-name="Path 7655" d="M607.186,276.618l-24.931-8.028L434.469,586.961,632.118,284.646Z" transform="translate(39.821 -245.375)" fill="url(#radial-gradient-25)"/>
          <path id="Path_7656" data-name="Path 7656" d="M708.441,342.131l-21.83-12.18L446.4,613.873,730.271,354.311Z" transform="translate(31.922 -267.2)" fill="url(#radial-gradient-26)"/>
          <path id="Path_7657" data-name="Path 7657" d="M793.575,433.39,776.02,417.713,456.3,651.919,811.13,449.067Z" transform="translate(12.96 -292.244)" fill="url(#radial-gradient-27)"/>
          <path id="Path_7658" data-name="Path 7658" d="M858.01,545.488l-12.337-18.331-87.325,39.291-4.16,1.872L463.633,699.055,870.347,563.82Z" transform="translate(12.228 -328.567)" fill="url(#radial-gradient-28)"/>
          <path id="Path_7659" data-name="Path 7659" d="M898.282,672.4l-6.455-20L468.01,752.745,904.737,692.4Z" transform="translate(11.791 -370.743)" fill="url(#radial-gradient-29)"/>
        </g>
      </g>
    </g>
    <g id="Group_1139" data-name="Group 1139" transform="translate(570 580.943) rotate(-90)">
      <ellipse id="Ellipse_377-2" data-name="Ellipse 377" cx="168.472" cy="1.935" rx="168.472" ry="1.935" transform="translate(0 10.891)" fill="url(#radial-gradient)" style="mix-blend-mode: screen;isolation: isolate"/>
      <ellipse id="Ellipse_378-2" data-name="Ellipse 378" cx="149.103" cy="12.826" rx="149.103" ry="12.826" transform="translate(19.369 0)" fill="url(#radial-gradient-2)" style="mix-blend-mode: screen;isolation: isolate"/>
    </g>
  </g>
</svg>
