<svg xmlns="http://www.w3.org/2000/svg" xmlns:xlink="http://www.w3.org/1999/xlink" width="1259.359" height="830.846" viewBox="0 0 1259.359 830.846">
  <defs>
    <radialGradient id="radial-gradient" cx="0.5" cy="0.5" r="13.713" gradientTransform="matrix(0.036, 0, 0, -0.036, 1.897, -218.656)" gradientUnits="objectBoundingBox">
      <stop offset="0" stop-color="#fff"/>
      <stop offset="0.017" stop-color="#f5e0d6"/>
      <stop offset="0.039" stop-color="#ebc0a9"/>
      <stop offset="0.06" stop-color="#e4a687"/>
      <stop offset="0.08" stop-color="#de946e"/>
      <stop offset="0.098" stop-color="#db885f"/>
      <stop offset="0.113" stop-color="#da855a"/>
      <stop offset="0.198" stop-color="#ad6947" stop-opacity="0.792"/>
      <stop offset="0.298" stop-color="#7f4d34" stop-opacity="0.584"/>
      <stop offset="0.402" stop-color="#583524" stop-opacity="0.404"/>
      <stop offset="0.508" stop-color="#382217" stop-opacity="0.259"/>
      <stop offset="0.619" stop-color="#1f130c" stop-opacity="0.145"/>
      <stop offset="0.733" stop-color="#0d0805" stop-opacity="0.063"/>
      <stop offset="0.856" stop-color="#030201" stop-opacity="0.016"/>
      <stop offset="1" stop-opacity="0"/>
    </radialGradient>
    <radialGradient id="radial-gradient-2" cx="0.5" cy="0.5" r="0.764" gradientTransform="matrix(1, 0, 0, -1, 0, 1)" xlink:href="#radial-gradient"/>
  </defs>
  <g id="Group_3707" data-name="Group 3707" transform="translate(-91 -191.676)">
    <g id="Path_12904" data-name="Path 12904" transform="translate(582.826 202)" fill="#0c012c">
      <path d="M 727 819.5217895507812 L -460 819.5217895507812 C -462.5535278320312 819.5217895507812 -465.0312194824219 818.97314453125 -467.3641662597656 817.8912963867188 C -469.6246032714844 816.8428344726562 -471.6564636230469 815.3402709960938 -473.4032287597656 813.4248657226562 C -475.156005859375 811.5028686523438 -476.5327758789062 809.2633056640625 -477.4953918457031 806.7682495117188 C -478.4936828613281 804.179931640625 -479 801.4290161132812 -479 798.5921020507812 L -479 21.92963409423828 C -479 19.09271049499512 -478.4936828613281 16.34194183349609 -477.4953918457031 13.75347995758057 C -476.5327758789062 11.25840282440186 -475.156005859375 9.018864631652832 -473.4032287597656 7.097018241882324 C -471.6564636230469 5.181633472442627 -469.6246032714844 3.679018020629883 -467.3641662597656 2.630556583404541 C -465.0312194824219 1.548710465431213 -462.5535278320312 1.000095009803772 -460 1.000095009803772 L 697 1.000095009803772 C 698.3447875976562 1.000095009803772 701.671875 1.863018155097961 708.8450927734375 7.641941070556641 C 713.841552734375 11.66717147827148 719.7219848632812 17.31471061706543 725.4032592773438 23.54424858093262 C 731.0855102539062 29.77455711364746 736.2373657226562 36.22424697875977 739.9099731445312 41.70501708984375 C 743.8372192382812 47.56563186645508 746 52.22470855712891 746 54.8240966796875 L 746 798.5921020507812 C 746 801.4290161132812 745.4937133789062 804.179931640625 744.495361328125 806.7682495117188 C 743.5327758789062 809.2633056640625 742.156005859375 811.5028686523438 740.4032592773438 813.4248657226562 C 738.6564331054688 815.3402709960938 736.6246337890625 816.8428344726562 734.3641357421875 817.8912963867188 C 732.03125 818.97314453125 729.5535278320312 819.5217895507812 727 819.5217895507812 Z" stroke="none"/>
      <path d="M -460 1.99993896484375 C -464.77294921875 1.99993896484375 -469.2704467773438 4.04931640625 -472.6644897460938 7.77069091796875 C -474.333251953125 9.6005859375 -475.6445922851562 11.73455810546875 -476.5623168945312 14.11346435546875 C -477.5162963867188 16.5865478515625 -478 19.21624755859375 -478 21.92962646484375 L -478 798.5921020507812 C -478 801.3054809570312 -477.5162963867188 803.9351806640625 -476.5623168945312 806.4082641601562 C -475.6445922851562 808.7871704101562 -474.333251953125 810.9210205078125 -472.6644897460938 812.7508544921875 C -469.2704467773438 816.4722290039062 -464.77294921875 818.5216064453125 -460 818.5216064453125 L 727 818.5216064453125 C 731.77294921875 818.5216064453125 736.2704467773438 816.4722290039062 739.6644287109375 812.7508544921875 C 741.333251953125 810.9210205078125 742.6446533203125 808.7871704101562 743.5623168945312 806.4082641601562 C 744.5162963867188 803.9351806640625 745 801.3054809570312 745 798.5921020507812 L 745 54.82391357421875 C 745 54.0216064453125 744.7384643554688 52.50518798828125 743.492431640625 49.837158203125 C 742.48046875 47.67010498046875 740.9957275390625 45.121337890625 739.079345703125 42.261474609375 C 735.4335327148438 36.82073974609375 730.3141479492188 30.4127197265625 724.6644287109375 24.21795654296875 C 719.0164794921875 18.0250244140625 713.175537109375 12.41473388671875 708.2176513671875 8.42041015625 C 701.0247802734375 2.6256103515625 697.9766235351562 1.99993896484375 697 1.99993896484375 L -460 1.99993896484375 M -460 -6.103515625e-05 L 697 -6.103515625e-05 C 708.045654296875 -6.103515625e-05 747 42.71258544921875 747 54.82391357421875 L 747 798.5921020507812 C 747 810.7034912109375 738.045654296875 820.5216064453125 727 820.5216064453125 L -460 820.5216064453125 C -471.0457153320312 820.5216064453125 -480 810.7034912109375 -480 798.5921020507812 L -480 21.92962646484375 C -480 9.8182373046875 -471.0457153320312 -6.103515625e-05 -460 -6.103515625e-05 Z" stroke="none" fill="#f48757"/>
    </g>
    <g id="Group_2758" data-name="Group 2758" transform="translate(1221.889 191.414)">
      <g id="Group_1172" data-name="Group 1172" transform="translate(0 4.291)" style="isolation: isolate">
        <rect id="Rectangle_164" data-name="Rectangle 164" width="64.759" height="18.298" rx="3.115" fill="#cd894c" style="isolation: isolate"/>
        <rect id="Rectangle_165" data-name="Rectangle 165" width="62.557" height="18.298" rx="3.062" transform="translate(118.069 45.561) rotate(90)" fill="#cd894c" style="isolation: isolate"/>
        <path id="Path_5417" data-name="Path 5417" d="M-2880.956,526.891l-45.318-33.428a4.222,4.222,0,0,0-5.9.891l-5.849,7.928a4.224,4.224,0,0,0,.892,5.905l53.506,36.651c-6.312-1.837-3.667-2.237-2.282-4.113l5.848-7.928A4.222,4.222,0,0,0-2880.956,526.891Z" transform="translate(2989.861 -492.304)" fill="#cd894c" style="isolation: isolate"/>
        <path id="Path_5418" data-name="Path 5418" d="M-2895.195,517.9a24.793,24.793,0,0,1,9.165,15.125v4.684h-12.791V519.2Z" transform="translate(3004.099 -483.317)" fill="#bd256e" style="isolation: isolate"/>
      </g>
      <g id="Group_1173" data-name="Group 1173" transform="translate(0 0.872)">
        <path id="Union_3" data-name="Union 3" d="M102.834,108.118a3.062,3.062,0,0,1-3.063-3.062V50.409a3.116,3.116,0,0,1-.837-.44L56,18.3H3.116A3.115,3.115,0,0,1,0,15.183V3.116A3.116,3.116,0,0,1,3.116,0H60.034a3.122,3.122,0,0,1,1.63,0,3.116,3.116,0,0,1,2.81,1.811L109.8,35.244a3.115,3.115,0,0,1,.658,4.357l-4.4,5.96h8.949a3.062,3.062,0,0,1,3.062,3.062v56.434a3.062,3.062,0,0,1-3.062,3.062Z" transform="translate(0 0)" fill="#f3bf2b" stroke="rgba(0,0,0,0)" stroke-miterlimit="10" stroke-width="1"/>
        <path id="Path_5419" data-name="Path 5419" d="M-2895.195,515.382a24.8,24.8,0,0,1,9.165,15.125v4.685h-12.791v-18.51Z" transform="translate(3004.099 -480.796)" fill="#f3bf2b" style="isolation: isolate"/>
      </g>
    </g>
    <g id="Group_649" data-name="Group 649" transform="translate(1309.298 583.756) rotate(-90)">
      <ellipse id="Ellipse_377" data-name="Ellipse 377" cx="183.806" cy="3.097" rx="183.806" ry="3.097" transform="translate(0 17.433)" fill="url(#radial-gradient)" style="mix-blend-mode: screen;isolation: isolate"/>
      <ellipse id="Ellipse_378" data-name="Ellipse 378" cx="152.801" cy="20.53" rx="152.801" ry="20.53" transform="translate(31.004 0)" fill="url(#radial-gradient-2)" style="mix-blend-mode: screen;isolation: isolate"/>
    </g>
    <g id="Group_1139" data-name="Group 1139" transform="translate(170 595.756) rotate(-90)">
      <ellipse id="Ellipse_377-2" data-name="Ellipse 377" cx="168.472" cy="1.935" rx="168.472" ry="1.935" transform="translate(0 10.891)" fill="url(#radial-gradient)" style="mix-blend-mode: screen;isolation: isolate"/>
      <ellipse id="Ellipse_378-2" data-name="Ellipse 378" cx="149.103" cy="12.826" rx="149.103" ry="12.826" transform="translate(19.369 -79)" fill="url(#radial-gradient-2)" style="mix-blend-mode: screen;isolation: isolate"/>
    </g>
  </g>
</svg>
