<svg xmlns="http://www.w3.org/2000/svg" xmlns:xlink="http://www.w3.org/1999/xlink" width="48.642" height="41.833" viewBox="0 0 48.642 41.833">
  <defs>
    <filter id="Icon_awesome-shopping-basket" x="0" y="0" width="48.642" height="41.833" filterUnits="userSpaceOnUse">
      <feOffset dy="3" input="SourceAlpha"/>
      <feGaussianBlur stdDeviation="3" result="blur"/>
      <feFlood flood-opacity="0.161"/>
      <feComposite operator="in" in2="blur"/>
      <feComposite in="SourceGraphic"/>
    </filter>
  </defs>
  <g transform="matrix(1, 0, 0, 1, 0, 0)" filter="url(#Icon_awesome-shopping-basket)">
    <path id="Icon_awesome-shopping-basket-2" data-name="Icon awesome-shopping-basket" d="M30.642,12.038v.851a1.277,1.277,0,0,1-1.277,1.277h-.426L27.55,23.89a2.553,2.553,0,0,1-2.528,2.192H5.619A2.554,2.554,0,0,1,3.091,23.89L1.7,14.166H1.277A1.277,1.277,0,0,1,0,12.889v-.851a1.277,1.277,0,0,1,1.277-1.277H4.859l5.68-7.81a1.7,1.7,0,1,1,2.753,2L9.069,10.762h12.5L17.349,4.953a1.7,1.7,0,0,1,2.753-2l5.68,7.811h3.582A1.277,1.277,0,0,1,30.642,12.038ZM16.6,21.4V15.443a1.277,1.277,0,1,0-2.553,0V21.4a1.277,1.277,0,1,0,2.553,0Zm5.958,0V15.443a1.277,1.277,0,1,0-2.553,0V21.4a1.277,1.277,0,1,0,2.553,0Zm-11.916,0V15.443a1.277,1.277,0,1,0-2.553,0V21.4a1.277,1.277,0,0,0,2.553,0Z" transform="translate(9 3.75)" fill="#fff"/>
  </g>
</svg>
