<svg xmlns="http://www.w3.org/2000/svg" xmlns:xlink="http://www.w3.org/1999/xlink" width="69.077" height="65.086" viewBox="0 0 69.077 65.086">
  <defs>
    <linearGradient id="linear-gradient" x1="0.5" x2="0.5" y2="1" gradientUnits="objectBoundingBox">
      <stop offset="0" stop-color="#fcf738"/>
      <stop offset="1" stop-color="#fab42b"/>
    </linearGradient>
    <filter id="Icon_awesome-star" x="0" y="0" width="69.077" height="65.086" filterUnits="userSpaceOnUse">
      <feOffset dy="3" input="SourceAlpha"/>
      <feGaussianBlur stdDeviation="3" result="blur"/>
      <feFlood flood-opacity="0.161"/>
      <feComposite operator="in" in2="blur"/>
      <feComposite in="SourceGraphic"/>
    </filter>
  </defs>
  <g transform="matrix(1, 0, 0, 1, 0, 0)" filter="url(#Icon_awesome-star)">
    <path id="Icon_awesome-star-2" data-name="Icon awesome-star" d="M24.24,1.637,18.006,13.812,4.057,15.77a2.917,2.917,0,0,0-1.69,5.021l10.091,9.471L10.072,43.641a3.031,3.031,0,0,0,4.43,3.1L26.98,40.423,39.458,46.74a3.033,3.033,0,0,0,4.43-3.1L41.5,30.262l10.091-9.471A2.917,2.917,0,0,0,49.9,15.77L35.954,13.812,29.72,1.637a3.111,3.111,0,0,0-5.48,0Z" transform="translate(7.56 6)" fill="url(#linear-gradient)"/>
  </g>
</svg>
