<svg xmlns="http://www.w3.org/2000/svg" xmlns:xlink="http://www.w3.org/1999/xlink" width="71.146" height="67.129" viewBox="0 0 71.146 67.129">
  <defs>
    <filter id="Icon_awesome-star" x="0" y="0" width="71.146" height="67.129" filterUnits="userSpaceOnUse">
      <feOffset dy="3" input="SourceAlpha"/>
      <feGaussianBlur stdDeviation="3" result="blur"/>
      <feFlood flood-opacity="0.161"/>
      <feComposite operator="in" in2="blur"/>
      <feComposite in="SourceGraphic"/>
    </filter>
  </defs>
  <g transform="matrix(1, 0, 0, 1, 0, 0)" filter="url(#Icon_awesome-star)">
    <path id="Icon_awesome-star-2" data-name="Icon awesome-star" d="M24.24,1.637,18.006,13.812,4.057,15.77a2.917,2.917,0,0,0-1.69,5.021l10.091,9.471L10.072,43.641a3.031,3.031,0,0,0,4.43,3.1L26.98,40.423,39.458,46.74a3.033,3.033,0,0,0,4.43-3.1L41.5,30.262l10.091-9.471A2.917,2.917,0,0,0,49.9,15.77L35.954,13.812,29.72,1.637a3.111,3.111,0,0,0-5.48,0Z" transform="translate(8.59 7)" fill="none" stroke="#cc8951" stroke-width="2"/>
  </g>
</svg>
